  0
SECTION
  2
HEADER
  9
$ACADVER
  1
AC1009
  9
$INSBASE
 10
0.0
 20
0.0
 30
0.0
  9
$EXTMIN
 10
0.0
 20
0.0
 30
0.0
  9
$EXTMAX
 10
0.0
 20
0.0
 30
0.0
  0
ENDSEC
  0
SECTION
  2
TABLES
  0
TABLE
  2
VPORT
 70
1
  0
VPORT
  2
*ACTIVE
 70
0
 10
0.0
 20
0.0
 11
1.0
 21
1.0
 12
-5.0
 22
1.0
 13
0.0
 23
0.0
 14
0.1
 24
0.1
 15
0.1
 25
0.1
 16
0.0
 26
0.0
 36
1.0
 17
0.0
 27
0.0
 37
0.0
 40
10.0
 41
1.0
 42
50.0
 43
0.0
 44
0.0
 50
0.0
 51
0.0
 71
0
 72
100
 73
1
 74
1
 75
0
 76
0
 77
0
 78
0
  0
ENDTAB
  0
TABLE
  2
LTYPE
 70
8
  0
LTYPE
  2
CONTINUOUS
 70
0
  3
Solid line
 72
65
 73
0
 40
0.0
  0
LTYPE
  2
DOT
 70
0
  3
. . . . . . .
 72
65
 73
2
 40
0.25
 49
0.0
 49
-0.25
  0
LTYPE
  2
DASHED
 70
0
  3
__ __ __ __ __
 72
65
 73
2
 40
0.8
 49
0.5
 49
-0.3
  0
LTYPE
  2
DASHDOT
 70
0
  3
__ . __ . __ .
 72
65
 73
4
 40
1.0
 49
0.5
 49
-0.25
 49
0.0
 49
-0.25
  0
LTYPE
  2
DIVIDE
 70
0
  3
____ . . ____ . . 
 72
65
 73
6
 40
1.25
 49
0.5
 49
-0.25
 49
0.0
 49
-0.25
 49
0.0
 49
-0.25
  0
LTYPE
  2
BORDER
 70
0
  3
__ __ . __ __ . 
 72
65
 73
6
 40
1.75
 49
0.5
 49
-0.25
 49
0.5
 49
-0.25
 49
0.0
 49
-0.25
  0
LTYPE
  2
HIDDEN
 70
0
  3
__ __ __ __ __
 72
65
 73
2
 40
0.4
 49
0.25
 49
-0.25
  0
LTYPE
  2
CENTER
 70
0
  3
____ _ ____ _ __
 72
65
 73
4
 40
2.0
 49
1.25
 49
-0.25
 49
0.25
 49
-0.25
  0
ENDTAB
  0
TABLE
  2
LAYER
 70
1
  0
LAYER
  2
PYDXF
 70
64
 62
7
  6
continuous
  0
ENDTAB
  0
TABLE
  2
STYLE
 70
1
  0
STYLE
  2
STANDARD
 70
0
 40
0
 41
1.0
 50
0.0
 71
0
 42
1
 3
ARIAL.TTF
 4

  0
ENDTAB
  0
TABLE
  2
VIEW
 70
1
  0
VIEW
  2
BF_TOPVIEW
 70
0
 40
120.0
 10
0.0
 20
0.0
 41
200.0
 11
0.0
 21
0.0
 31
1.0
 12
0.0
 22
0.0
 32
0.0
 42
50.0
 43
0.0
 44
0.0
 50
0.0
 71
0
  0
ENDTAB
  0
ENDSEC
  0
SECTION
  2
BLOCKS
  0
ENDSEC
  0
SECTION
  2
ENTITIES
  0
LINE
  8
0
 10
-114.5922622680664
 20
7.065177917480469
 30
0.0
 11
-114.5922622680664
 21
0.165176123380661
 31
0.0
  0
LINE
  8
0
 10
59.607666015625
 20
-4.834823131561279
 30
0.0
 11
73.40766143798828
 21
-4.834823131561279
 31
0.0
  0
LINE
  8
0
 10
-114.5922622680664
 20
7.065177917480469
 30
0.0
 11
-114.5922622680664
 21
13.965178489685059
 31
0.0
  0
LINE
  8
0
 10
85.03006744384766
 20
-4.834823131561279
 30
0.0
 11
78.40766143798828
 21
-4.834823131561279
 31
0.0
  0
LINE
  8
0
 10
73.40766143798828
 20
-11.734820365905762
 30
0.0
 11
73.40766143798828
 21
-4.834823131561279
 31
0.0
  0
LINE
  8
0
 10
78.40766143798828
 20
25.865175247192383
 30
0.0
 11
78.40766143798828
 21
32.76517105102539
 31
0.0
  0
LINE
  8
0
 10
-128.39227294921875
 20
-18.63481903076172
 30
0.0
 11
-125.3172607421875
 21
-18.63481903076172
 31
0.0
  0
LINE
  8
0
 10
91.30765533447266
 20
-4.834823131561279
 30
0.0
 11
105.10765838623047
 21
-4.834823131561279
 31
0.0
  0
LINE
  8
0
 10
-109.59226989746094
 20
-4.834823131561279
 30
0.0
 11
-109.59226989746094
 21
-18.63481903076172
 31
0.0
  0
LINE
  8
0
 10
91.30765533447266
 20
-18.63481903076172
 30
0.0
 11
105.10765838623047
 21
-18.63481903076172
 31
0.0
  0
LINE
  8
0
 10
-109.59226989746094
 20
-4.834823131561279
 30
0.0
 11
-95.79227447509766
 21
-4.834823131561279
 31
0.0
  0
LINE
  8
0
 10
-90.79227447509766
 20
-18.63481903076172
 30
0.0
 11
-76.99227905273438
 21
-18.63481903076172
 31
0.0
  0
LINE
  8
0
 10
138.80763244628906
 20
-60.23482131958008
 30
0.0
 11
152.60763549804688
 21
-60.23482131958008
 31
0.0
  0
LINE
  8
0
 10
17.007699966430664
 20
0.165176123380661
 30
0.0
 11
17.007699966430664
 21
13.965178489685059
 31
0.0
  0
LINE
  8
0
 10
118.00765228271484
 20
-18.63482666015625
 30
0.0
 11
118.00765228271484
 21
-4.834823131561279
 31
0.0
  0
LINE
  8
0
 10
133.80763244628906
 20
-34.534820556640625
 30
0.0
 11
133.80763244628906
 21
-27.63481903076172
 31
0.0
  0
LINE
  8
0
 10
-76.99227905273438
 20
0.165176123380661
 30
0.0
 11
-76.99227905273438
 21
7.065177917480469
 31
0.0
  0
LINE
  8
0
 10
162.56997680664062
 20
-1.856431007385254
 30
0.0
 11
162.56997680664062
 21
60.54356002807617
 31
0.0
  0
LINE
  8
0
 10
162.56997680664062
 20
-1.856431007385254
 30
0.0
 11
162.56997680664062
 21
-64.25642395019531
 31
0.0
  0
LINE
  8
0
 10
-58.192283630371094
 20
18.96517562866211
 30
0.0
 11
-58.192283630371094
 21
25.865175247192383
 31
0.0
  0
LINE
  8
0
 10
-109.59226989746094
 20
-42.434810638427734
 30
0.0
 11
-102.69226837158203
 21
-42.434810638427734
 31
0.0
  0
LINE
  8
0
 10
-58.192283630371094
 20
-18.63481903076172
 30
0.0
 11
-58.192283630371094
 21
-4.834823131561279
 31
0.0
  0
LINE
  8
0
 10
-53.19228744506836
 20
-4.834823131561279
 30
0.0
 11
-53.19228744506836
 21
-18.63481903076172
 31
0.0
  0
LINE
  8
0
 10
-56.192264556884766
 20
41.76517105102539
 30
0.0
 11
-56.192264556884766
 21
55.56517028808594
 31
0.0
  0
LINE
  8
0
 10
-53.19228744506836
 20
-4.834823131561279
 30
0.0
 11
-39.39228820800781
 21
-4.834823131561279
 31
0.0
  0
LINE
  8
0
 10
94.2077407836914
 20
41.76517105102539
 30
0.0
 11
94.2077407836914
 21
55.56517028808594
 31
0.0
  0
LINE
  8
0
 10
-39.39228820800781
 20
0.165176123380661
 30
0.0
 11
-39.39228820800781
 21
7.065177917480469
 31
0.0
  0
LINE
  8
0
 10
73.40766143798828
 20
0.165176123380661
 30
0.0
 11
73.40766143798828
 21
7.065177917480469
 31
0.0
  0
LINE
  8
0
 10
-32.392269134521484
 20
41.76517105102539
 30
0.0
 11
-18.592266082763672
 21
41.76517105102539
 31
0.0
  0
LINE
  8
0
 10
144.80772399902344
 20
-4.834823131561279
 30
0.0
 11
151.70770263671875
 21
-4.834823131561279
 31
0.0
  0
LINE
  8
0
 10
-20.59229850769043
 20
-11.734820365905762
 30
0.0
 11
-20.59229850769043
 21
-4.834823131561279
 31
0.0
  0
LINE
  8
0
 10
-13.592266082763672
 20
41.76517105102539
 30
0.0
 11
0.20773687958717346
 21
41.76517105102539
 31
0.0
  0
LINE
  8
0
 10
-15.59229564666748
 20
-11.734820365905762
 30
0.0
 11
-15.59229564666748
 21
-18.63481903076172
 31
0.0
  0
LINE
  8
0
 10
-15.59229564666748
 20
-11.734820365905762
 30
0.0
 11
-15.59229564666748
 21
-4.834823131561279
 31
0.0
  0
LINE
  8
0
 10
144.80772399902344
 20
32.76517105102539
 30
0.0
 11
158.60769653320312
 21
32.76517105102539
 31
0.0
  0
LINE
  8
0
 10
-1.7923015356063843
 20
-18.63481903076172
 30
0.0
 11
-1.7923015356063843
 21
-4.834823131561279
 31
0.0
  0
LINE
  8
0
 10
-149.1922607421875
 20
32.76517105102539
 30
0.0
 11
-135.3922576904297
 21
32.76517105102539
 31
0.0
  0
LINE
  8
0
 10
5.207736492156982
 20
41.76517105102539
 30
0.0
 11
19.007732391357422
 21
41.76517105102539
 31
0.0
  0
LINE
  8
0
 10
19.007732391357422
 20
41.76517105102539
 30
0.0
 11
19.007732391357422
 21
48.6651725769043
 31
0.0
  0
LINE
  8
0
 10
-112.59225463867188
 20
48.6651725769043
 30
0.0
 11
-112.59225463867188
 21
55.56517028808594
 31
0.0
  0
LINE
  8
0
 10
137.40113830566406
 20
60.54356002807617
 30
0.0
 11
4.669994354248047
 21
60.54356002807617
 31
0.0
  0
LINE
  8
0
 10
24.00774574279785
 20
41.76517105102539
 30
0.0
 11
37.80773162841797
 21
41.76517105102539
 31
0.0
  0
LINE
  8
0
 10
-15.59229564666748
 20
-37.434810638427734
 30
0.0
 11
-12.517295837402344
 21
-37.434810638427734
 31
0.0
  0
LINE
  8
0
 10
-15.59229564666748
 20
-37.434810638427734
 30
0.0
 11
-15.59229564666748
 21
-23.63481903076172
 31
0.0
  0
LINE
  8
0
 10
-13.592266082763672
 20
55.56517028808594
 30
0.0
 11
0.20773687958717346
 21
55.56517028808594
 31
0.0
  0
LINE
  8
0
 10
-149.1922607421875
 20
-42.434810638427734
 30
0.0
 11
-149.1922607421875
 21
-56.23481369018555
 31
0.0
  0
LINE
  8
0
 10
22.007692337036133
 20
-4.834823131561279
 30
0.0
 11
22.007692337036133
 21
-18.63481903076172
 31
0.0
  0
LINE
  8
0
 10
22.007692337036133
 20
-4.834823131561279
 30
0.0
 11
35.80768966674805
 21
-4.834823131561279
 31
0.0
  0
LINE
  8
0
 10
-15.59229564666748
 20
13.965178489685059
 30
0.0
 11
-1.7923015356063843
 21
13.965178489685059
 31
0.0
  0
LINE
  8
0
 10
-39.39228820800781
 20
-37.434810638427734
 30
0.0
 11
-39.39228820800781
 21
-23.63481903076172
 31
0.0
  0
LINE
  8
0
 10
101.20764923095703
 20
-46.43482208251953
 30
0.0
 11
101.20764923095703
 21
-56.40982437133789
 31
0.0
  0
LINE
  8
0
 10
-149.1922607421875
 20
-42.434810638427734
 30
0.0
 11
-135.3922576904297
 21
-42.434810638427734
 31
0.0
  0
LINE
  8
0
 10
3.2077064514160156
 20
18.96517562866211
 30
0.0
 11
3.2077064514160156
 21
32.76517105102539
 31
0.0
  0
LINE
  8
0
 10
3.2077064514160156
 20
18.96517562866211
 30
0.0
 11
17.007699966430664
 21
18.96517562866211
 31
0.0
  0
LINE
  8
0
 10
101.20764923095703
 20
-46.43482208251953
 30
0.0
 11
115.00765228271484
 21
-46.43482208251953
 31
0.0
  0
LINE
  8
0
 10
59.607666015625
 20
-37.434810638427734
 30
0.0
 11
73.40766143798828
 21
-37.434810638427734
 31
0.0
  0
LINE
  8
0
 10
73.40766143798828
 20
-18.63481903076172
 30
0.0
 11
73.40766143798828
 21
-11.734820365905762
 31
0.0
  0
LINE
  8
0
 10
-136.29226684570312
 20
-37.434810638427734
 30
0.0
 11
-125.56727600097656
 21
-37.434810638427734
 31
0.0
  0
LINE
  8
0
 10
85.03006744384766
 20
-11.734820365905762
 30
0.0
 11
85.03006744384766
 21
-4.834823131561279
 31
0.0
  0
LINE
  8
0
 10
-109.59226989746094
 20
32.76517105102539
 30
0.0
 11
-109.59226989746094
 21
18.96517562866211
 31
0.0
  0
LINE
  8
0
 10
85.03006744384766
 20
-11.734820365905762
 30
0.0
 11
85.03006744384766
 21
-18.63481903076172
 31
0.0
  0
LINE
  8
0
 10
-136.29226684570312
 20
-37.434810638427734
 30
0.0
 11
-136.29226684570312
 21
-23.63481903076172
 31
0.0
  0
LINE
  8
0
 10
78.40766143798828
 20
18.96517562866211
 30
0.0
 11
78.40766143798828
 21
25.865175247192383
 31
0.0
  0
LINE
  8
0
 10
-109.59226989746094
 20
32.76517105102539
 30
0.0
 11
-95.79227447509766
 21
32.76517105102539
 31
0.0
  0
LINE
  8
0
 10
-114.5922622680664
 20
-18.63481903076172
 30
0.0
 11
-125.3172607421875
 21
-18.63481903076172
 31
0.0
  0
LINE
  8
0
 10
-114.5922622680664
 20
-18.63481903076172
 30
0.0
 11
-114.5922622680664
 21
-4.834823131561279
 31
0.0
  0
LINE
  8
0
 10
91.30765533447266
 20
-4.834823131561279
 30
0.0
 11
91.30765533447266
 21
-11.734820365905762
 31
0.0
  0
LINE
  8
0
 10
133.80763244628906
 20
-53.33482360839844
 30
0.0
 11
133.80763244628906
 21
-46.43482208251953
 31
0.0
  0
LINE
  8
0
 10
111.1076431274414
 20
0.165176123380661
 30
0.0
 11
104.20764923095703
 21
0.165176123380661
 31
0.0
  0
LINE
  8
0
 10
-34.39228820800781
 20
-4.834823131561279
 30
0.0
 11
-34.39228820800781
 21
-18.63481903076172
 31
0.0
  0
LINE
  8
0
 10
61.607749938964844
 20
41.76517105102539
 30
0.0
 11
75.4077377319336
 21
41.76517105102539
 31
0.0
  0
LINE
  8
0
 10
138.80763244628906
 20
-53.33482360839844
 30
0.0
 11
138.80763244628906
 21
-60.23482131958008
 31
0.0
  0
LINE
  8
0
 10
138.80763244628906
 20
-53.33482360839844
 30
0.0
 11
138.80763244628906
 21
-46.43482208251953
 31
0.0
  0
LINE
  8
0
 10
78.40766143798828
 20
18.96517562866211
 30
0.0
 11
92.2076416015625
 21
18.96517562866211
 31
0.0
  0
LINE
  8
0
 10
-76.99227905273438
 20
18.96517562866211
 30
0.0
 11
-76.99227905273438
 21
32.76517105102539
 31
0.0
  0
LINE
  8
0
 10
120.00765228271484
 20
-41.43482208251953
 30
0.0
 11
120.00765228271484
 21
-27.63481903076172
 31
0.0
  0
LINE
  8
0
 10
-153.22998046875
 20
-1.856431007385254
 30
0.0
 11
-153.22998046875
 21
60.54356002807617
 31
0.0
  0
LINE
  8
0
 10
120.00765228271484
 20
-41.43482208251953
 30
0.0
 11
133.80763244628906
 21
-41.43482208251953
 31
0.0
  0
LINE
  8
0
 10
133.80763244628906
 20
-41.43482208251953
 30
0.0
 11
133.80763244628906
 21
-34.534820556640625
 31
0.0
  0
LINE
  8
0
 10
144.80772399902344
 20
-34.35982131958008
 30
0.0
 11
144.80772399902344
 21
-37.43482208251953
 31
0.0
  0
LINE
  8
0
 10
144.80772399902344
 20
-34.35982131958008
 30
0.0
 11
144.80772399902344
 21
-23.63481903076172
 31
0.0
  0
LINE
  8
0
 10
-90.79227447509766
 20
13.965178489685059
 30
0.0
 11
-76.99227905273438
 21
13.965178489685059
 31
0.0
  0
LINE
  8
0
 10
-71.99227142333984
 20
18.96517562866211
 30
0.0
 11
-71.99227142333984
 21
32.76517105102539
 31
0.0
  0
LINE
  8
0
 10
91.30765533447266
 20
-18.63481903076172
 30
0.0
 11
91.30765533447266
 21
-11.734820365905762
 31
0.0
  0
LINE
  8
0
 10
-13.592266082763672
 20
41.76517105102539
 30
0.0
 11
-13.592266082763672
 21
55.56517028808594
 31
0.0
  0
LINE
  8
0
 10
-71.99227142333984
 20
18.96517562866211
 30
0.0
 11
-58.192283630371094
 21
18.96517562866211
 31
0.0
  0
LINE
  8
0
 10
144.80772399902344
 20
48.6651725769043
 30
0.0
 11
144.80772399902344
 21
55.56517028808594
 31
0.0
  0
LINE
  8
0
 10
22.007692337036133
 20
32.76517105102539
 30
0.0
 11
35.80768966674805
 21
32.76517105102539
 31
0.0
  0
LINE
  8
0
 10
-58.192283630371094
 20
25.865175247192383
 30
0.0
 11
-58.192283630371094
 21
32.76517105102539
 31
0.0
  0
LINE
  8
0
 10
-102.69226837158203
 20
-37.434810638427734
 30
0.0
 11
-95.79227447509766
 21
-37.434810638427734
 31
0.0
  0
LINE
  8
0
 10
158.60769653320312
 20
-18.63481903076172
 30
0.0
 11
158.60769653320312
 21
-4.834823131561279
 31
0.0
  0
LINE
  8
0
 10
-76.99227905273438
 20
-37.434810638427734
 30
0.0
 11
-90.79227447509766
 21
-37.434810638427734
 31
0.0
  0
LINE
  8
0
 10
-76.99227905273438
 20
-37.434810638427734
 30
0.0
 11
-76.99227905273438
 21
-30.53481674194336
 31
0.0
  0
LINE
  8
0
 10
-76.99227905273438
 20
-30.53481674194336
 30
0.0
 11
-76.99227905273438
 21
-23.63481903076172
 31
0.0
  0
LINE
  8
0
 10
42.80774688720703
 20
48.6651725769043
 30
0.0
 11
42.80774688720703
 21
41.76517105102539
 31
0.0
  0
LINE
  8
0
 10
42.80774688720703
 20
48.6651725769043
 30
0.0
 11
42.80774688720703
 21
55.56517028808594
 31
0.0
  0
LINE
  8
0
 10
111.1076431274414
 20
18.96517562866211
 30
0.0
 11
118.00765228271484
 21
18.96517562866211
 31
0.0
  0
LINE
  8
0
 10
-53.19228744506836
 20
32.76517105102539
 30
0.0
 11
-39.39228820800781
 21
32.76517105102539
 31
0.0
  0
LINE
  8
0
 10
-69.99226379394531
 20
41.76517105102539
 30
0.0
 11
-56.192264556884766
 21
41.76517105102539
 31
0.0
  0
LINE
  8
0
 10
-76.99227905273438
 20
-56.23481369018555
 30
0.0
 11
-76.99227905273438
 21
-49.334808349609375
 31
0.0
  0
LINE
  8
0
 10
-51.1922721862793
 20
55.56517028808594
 30
0.0
 11
-37.392269134521484
 21
55.56517028808594
 31
0.0
  0
LINE
  8
0
 10
-32.392269134521484
 20
48.6651725769043
 30
0.0
 11
-32.392269134521484
 21
41.76517105102539
 31
0.0
  0
LINE
  8
0
 10
-32.392269134521484
 20
48.6651725769043
 30
0.0
 11
-32.392269134521484
 21
55.56517028808594
 31
0.0
  0
LINE
  8
0
 10
73.40766143798828
 20
7.065177917480469
 30
0.0
 11
73.40766143798828
 21
13.965178489685059
 31
0.0
  0
LINE
  8
0
 10
78.40766143798828
 20
7.065177917480469
 30
0.0
 11
78.40766143798828
 21
0.165176123380661
 31
0.0
  0
LINE
  8
0
 10
78.40766143798828
 20
7.065177917480469
 30
0.0
 11
78.40766143798828
 21
13.965178489685059
 31
0.0
  0
LINE
  8
0
 10
5.207736492156982
 20
48.6651725769043
 30
0.0
 11
5.207736492156982
 21
41.76517105102539
 31
0.0
  0
LINE
  8
0
 10
5.207736492156982
 20
48.6651725769043
 30
0.0
 11
5.207736492156982
 21
55.56517028808594
 31
0.0
  0
LINE
  8
0
 10
-15.59229564666748
 20
-18.63481903076172
 30
0.0
 11
-1.7923015356063843
 21
-18.63481903076172
 31
0.0
  0
LINE
  8
0
 10
-149.1922607421875
 20
0.165176123380661
 30
0.0
 11
-149.1922607421875
 21
13.965178489685059
 31
0.0
  0
LINE
  8
0
 10
-149.1922607421875
 20
0.165176123380661
 30
0.0
 11
-135.3922576904297
 21
0.165176123380661
 31
0.0
  0
LINE
  8
0
 10
-20.59229850769043
 20
0.165176123380661
 30
0.0
 11
-20.59229850769043
 21
13.965178489685059
 31
0.0
  0
LINE
  8
0
 10
-112.59225463867188
 20
41.76517105102539
 30
0.0
 11
-112.59225463867188
 21
48.6651725769043
 31
0.0
  0
LINE
  8
0
 10
3.2077064514160156
 20
-4.834823131561279
 30
0.0
 11
3.2077064514160156
 21
-18.63481903076172
 31
0.0
  0
LINE
  8
0
 10
-112.59225463867188
 20
41.76517105102539
 30
0.0
 11
-126.39226531982422
 21
41.76517105102539
 31
0.0
  0
LINE
  8
0
 10
151.70770263671875
 20
18.96517562866211
 30
0.0
 11
158.60769653320312
 21
18.96517562866211
 31
0.0
  0
LINE
  8
0
 10
104.20764923095703
 20
0.165176123380661
 30
0.0
 11
104.20764923095703
 21
13.965178489685059
 31
0.0
  0
LINE
  8
0
 10
-69.99226379394531
 20
41.76517105102539
 30
0.0
 11
-69.99226379394531
 21
48.6651725769043
 31
0.0
  0
LINE
  8
0
 10
3.2077064514160156
 20
-4.834823131561279
 30
0.0
 11
17.007699966430664
 21
-4.834823131561279
 31
0.0
  0
LINE
  8
0
 10
-15.59229564666748
 20
0.165176123380661
 30
0.0
 11
-15.59229564666748
 21
13.965178489685059
 31
0.0
  0
LINE
  8
0
 10
35.80768966674805
 20
-37.434810638427734
 30
0.0
 11
35.80768966674805
 21
-23.63481903076172
 31
0.0
  0
LINE
  8
0
 10
-15.59229564666748
 20
0.165176123380661
 30
0.0
 11
-1.7923015356063843
 21
0.165176123380661
 31
0.0
  0
LINE
  8
0
 10
54.607669830322266
 20
-49.334808349609375
 30
0.0
 11
54.607669830322266
 21
-42.434810638427734
 31
0.0
  0
LINE
  8
0
 10
54.607669830322266
 20
-49.334808349609375
 30
0.0
 11
54.607669830322266
 21
-56.23481369018555
 31
0.0
  0
LINE
  8
0
 10
40.807682037353516
 20
-23.63481903076172
 30
0.0
 11
54.607669830322266
 21
-23.63481903076172
 31
0.0
  0
LINE
  8
0
 10
-39.39228820800781
 20
7.065177917480469
 30
0.0
 11
-39.39228820800781
 21
13.965178489685059
 31
0.0
  0
LINE
  8
0
 10
-109.59226989746094
 20
18.96517562866211
 30
0.0
 11
-95.79227447509766
 21
18.96517562866211
 31
0.0
  0
LINE
  8
0
 10
120.00765228271484
 20
-60.23482131958008
 30
0.0
 11
133.80763244628906
 21
-60.23482131958008
 31
0.0
  0
LINE
  8
0
 10
85.40766143798828
 20
-23.63481903076172
 30
0.0
 11
99.20764923095703
 21
-23.63481903076172
 31
0.0
  0
LINE
  8
0
 10
-109.59226989746094
 20
-18.63481903076172
 30
0.0
 11
-95.79227447509766
 21
-18.63481903076172
 31
0.0
  0
LINE
  8
0
 10
92.2076416015625
 20
18.96517562866211
 30
0.0
 11
92.2076416015625
 21
32.76517105102539
 31
0.0
  0
LINE
  8
0
 10
-90.79227447509766
 20
7.065177917480469
 30
0.0
 11
-90.79227447509766
 21
0.165176123380661
 31
0.0
  0
LINE
  8
0
 10
144.80772399902344
 20
13.965178489685059
 30
0.0
 11
151.70770263671875
 21
13.965178489685059
 31
0.0
  0
LINE
  8
0
 10
-88.7922592163086
 20
48.6651725769043
 30
0.0
 11
-88.7922592163086
 21
55.56517028808594
 31
0.0
  0
LINE
  8
0
 10
135.80770874023438
 20
41.76517105102539
 30
0.0
 11
135.80770874023438
 21
48.6651725769043
 31
0.0
  0
LINE
  8
0
 10
144.80772399902344
 20
-37.43482208251953
 30
0.0
 11
158.60769653320312
 21
-37.43482208251953
 31
0.0
  0
LINE
  8
0
 10
-109.59226989746094
 20
13.965178489685059
 30
0.0
 11
-95.79227447509766
 21
13.965178489685059
 31
0.0
  0
LINE
  8
0
 10
-71.99227142333984
 20
32.76517105102539
 30
0.0
 11
-58.192283630371094
 21
32.76517105102539
 31
0.0
  0
LINE
  8
0
 10
-114.5922622680664
 20
-56.23481369018555
 30
0.0
 11
-114.5922622680664
 21
-42.434810638427734
 31
0.0
  0
LINE
  8
0
 10
118.00765228271484
 20
-4.834823131561279
 30
0.0
 11
111.4012222290039
 21
-4.834823131561279
 31
0.0
  0
LINE
  8
0
 10
-114.5922622680664
 20
-42.434810638427734
 30
0.0
 11
-125.3172607421875
 21
-42.434810638427734
 31
0.0
  0
LINE
  8
0
 10
-71.99227142333984
 20
-4.834823131561279
 30
0.0
 11
-71.99227142333984
 21
-18.63481903076172
 31
0.0
  0
LINE
  8
0
 10
-71.99227142333984
 20
-4.834823131561279
 30
0.0
 11
-58.192283630371094
 21
-4.834823131561279
 31
0.0
  0
LINE
  8
0
 10
56.607730865478516
 20
41.76517105102539
 30
0.0
 11
56.607730865478516
 21
55.56517028808594
 31
0.0
  0
LINE
  8
0
 10
-109.59226989746094
 20
-56.23481369018555
 30
0.0
 11
-109.59226989746094
 21
-42.434810638427734
 31
0.0
  0
LINE
  8
0
 10
-56.192264556884766
 20
55.56517028808594
 30
0.0
 11
-69.99226379394531
 21
55.56517028808594
 31
0.0
  0
LINE
  8
0
 10
-53.19228744506836
 20
-18.63481903076172
 30
0.0
 11
-39.39228820800781
 21
-18.63481903076172
 31
0.0
  0
LINE
  8
0
 10
59.607666015625
 20
7.065177917480469
 30
0.0
 11
59.607666015625
 21
0.165176123380661
 31
0.0
  0
LINE
  8
0
 10
59.607666015625
 20
7.065177917480469
 30
0.0
 11
59.607666015625
 21
13.965178489685059
 31
0.0
  0
LINE
  8
0
 10
-135.3922576904297
 20
41.76517105102539
 30
0.0
 11
-135.3922576904297
 21
48.6651725769043
 31
0.0
  0
LINE
  8
0
 10
-34.39228820800781
 20
18.96517562866211
 30
0.0
 11
-34.39228820800781
 21
32.76517105102539
 31
0.0
  0
LINE
  8
0
 10
-34.39228820800781
 20
18.96517562866211
 30
0.0
 11
-20.59229850769043
 21
18.96517562866211
 31
0.0
  0
LINE
  8
0
 10
78.40766143798828
 20
0.165176123380661
 30
0.0
 11
92.2076416015625
 21
0.165176123380661
 31
0.0
  0
LINE
  8
0
 10
-34.39228820800781
 20
13.965178489685059
 30
0.0
 11
-34.39228820800781
 21
7.065177917480469
 31
0.0
  0
LINE
  8
0
 10
-153.22998046875
 20
-1.856431007385254
 30
0.0
 11
-153.22998046875
 21
-64.25642395019531
 31
0.0
  0
LINE
  8
0
 10
59.607666015625
 20
-42.434818267822266
 30
0.0
 11
59.607666015625
 21
-49.33481979370117
 31
0.0
  0
LINE
  8
0
 10
-34.39228820800781
 20
13.965178489685059
 30
0.0
 11
-20.59229850769043
 21
13.965178489685059
 31
0.0
  0
LINE
  8
0
 10
59.607666015625
 20
-42.434818267822266
 30
0.0
 11
73.40766143798828
 21
-42.434818267822266
 31
0.0
  0
LINE
  8
0
 10
19.007732391357422
 20
48.6651725769043
 30
0.0
 11
19.007732391357422
 21
55.56517028808594
 31
0.0
  0
LINE
  8
0
 10
-15.59229564666748
 20
18.96517562866211
 30
0.0
 11
-15.59229564666748
 21
32.76517105102539
 31
0.0
  0
LINE
  8
0
 10
-128.39227294921875
 20
18.96517562866211
 30
0.0
 11
-128.39227294921875
 21
32.76517105102539
 31
0.0
  0
LINE
  8
0
 10
-15.59229564666748
 20
18.96517562866211
 30
0.0
 11
-1.7923015356063843
 21
18.96517562866211
 31
0.0
  0
LINE
  8
0
 10
-107.5922622680664
 20
41.76517105102539
 30
0.0
 11
-107.5922622680664
 21
48.6651725769043
 31
0.0
  0
LINE
  8
0
 10
-107.5922622680664
 20
41.76517105102539
 30
0.0
 11
-93.7922592163086
 21
41.76517105102539
 31
0.0
  0
LINE
  8
0
 10
3.2077064514160156
 20
0.165176123380661
 30
0.0
 11
3.2077064514160156
 21
13.965178489685059
 31
0.0
  0
LINE
  8
0
 10
17.007699966430664
 20
-18.63481903076172
 30
0.0
 11
17.007699966430664
 21
-4.834823131561279
 31
0.0
  0
LINE
  8
0
 10
37.80773162841797
 20
48.6651725769043
 30
0.0
 11
37.80773162841797
 21
55.56517028808594
 31
0.0
  0
LINE
  8
0
 10
-153.22998046875
 20
60.54356002807617
 30
0.0
 11
4.669994354248047
 21
60.54356002807617
 31
0.0
  0
LINE
  8
0
 10
-1.7923015356063843
 20
-37.434810638427734
 30
0.0
 11
-1.7923015356063843
 21
-23.63481903076172
 31
0.0
  0
LINE
  8
0
 10
-24.992300033569336
 20
-56.23481369018555
 30
0.0
 11
-11.192309379577637
 21
-56.23481369018555
 31
0.0
  0
LINE
  8
0
 10
17.007699966430664
 20
-37.434810638427734
 30
0.0
 11
17.007699966430664
 21
-23.63481903076172
 31
0.0
  0
LINE
  8
0
 10
22.007692337036133
 20
0.165176123380661
 30
0.0
 11
35.80768966674805
 21
0.165176123380661
 31
0.0
  0
LINE
  8
0
 10
54.607669830322266
 20
-42.434810638427734
 30
0.0
 11
40.807682037353516
 21
-42.434810638427734
 31
0.0
  0
LINE
  8
0
 10
40.807682037353516
 20
-18.63481903076172
 30
0.0
 11
40.807682037353516
 21
-11.734820365905762
 31
0.0
  0
LINE
  8
0
 10
104.20764923095703
 20
18.96517562866211
 30
0.0
 11
104.20764923095703
 21
32.76517105102539
 31
0.0
  0
LINE
  8
0
 10
40.807682037353516
 20
-18.63481903076172
 30
0.0
 11
54.607669830322266
 21
-18.63481903076172
 31
0.0
  0
LINE
  8
0
 10
115.00765228271484
 20
-60.23482131958008
 30
0.0
 11
115.00765228271484
 21
-53.33482360839844
 31
0.0
  0
LINE
  8
0
 10
59.607666015625
 20
-23.63481903076172
 30
0.0
 11
73.40766143798828
 21
-23.63481903076172
 31
0.0
  0
LINE
  8
0
 10
-125.56727600097656
 20
-37.434810638427734
 30
0.0
 11
-122.49227142333984
 21
-37.434810638427734
 31
0.0
  0
LINE
  8
0
 10
85.40766143798828
 20
-37.434810638427734
 30
0.0
 11
85.40766143798828
 21
-23.63481903076172
 31
0.0
  0
LINE
  8
0
 10
-122.49227142333984
 20
-23.63481903076172
 30
0.0
 11
-125.56727600097656
 21
-23.63481903076172
 31
0.0
  0
LINE
  8
0
 10
35.80768966674805
 20
13.965178489685059
 30
0.0
 11
22.007692337036133
 21
13.965178489685059
 31
0.0
  0
LINE
  8
0
 10
85.40766143798828
 20
-37.434810638427734
 30
0.0
 11
92.30765533447266
 21
-37.434810638427734
 31
0.0
  0
LINE
  8
0
 10
144.80772399902344
 20
32.76517105102539
 30
0.0
 11
144.80772399902344
 21
18.96517562866211
 31
0.0
  0
LINE
  8
0
 10
104.20764923095703
 20
13.965178489685059
 30
0.0
 11
111.1076431274414
 21
13.965178489685059
 31
0.0
  0
LINE
  8
0
 10
158.60769653320312
 20
18.96517562866211
 30
0.0
 11
158.60769653320312
 21
32.76517105102539
 31
0.0
  0
LINE
  8
0
 10
78.40766143798828
 20
32.76517105102539
 30
0.0
 11
92.2076416015625
 21
32.76517105102539
 31
0.0
  0
LINE
  8
0
 10
138.80763244628906
 20
-46.43482208251953
 30
0.0
 11
152.60763549804688
 21
-46.43482208251953
 31
0.0
  0
LINE
  8
0
 10
-76.99227905273438
 20
-18.63481903076172
 30
0.0
 11
-76.99227905273438
 21
-4.834823131561279
 31
0.0
  0
LINE
  8
0
 10
158.60769653320312
 20
13.965178489685059
 30
0.0
 11
151.70770263671875
 21
13.965178489685059
 31
0.0
  0
LINE
  8
0
 10
120.00765228271484
 20
-27.63481903076172
 30
0.0
 11
133.80763244628906
 21
-27.63481903076172
 31
0.0
  0
LINE
  8
0
 10
-76.99227905273438
 20
7.065177917480469
 30
0.0
 11
-76.99227905273438
 21
13.965178489685059
 31
0.0
  0
LINE
  8
0
 10
158.60769653320312
 20
55.56517028808594
 30
0.0
 11
158.60769653320312
 21
41.76517105102539
 31
0.0
  0
LINE
  8
0
 10
158.60769653320312
 20
-37.43482208251953
 30
0.0
 11
158.60769653320312
 21
-23.63481903076172
 31
0.0
  0
LINE
  8
0
 10
158.60769653320312
 20
55.56517028808594
 30
0.0
 11
144.80772399902344
 21
55.56517028808594
 31
0.0
  0
LINE
  8
0
 10
22.007692337036133
 20
0.165176123380661
 30
0.0
 11
22.007692337036133
 21
13.965178489685059
 31
0.0
  0
LINE
  8
0
 10
-95.79227447509766
 20
-37.434810638427734
 30
0.0
 11
-95.79227447509766
 21
-23.63481903076172
 31
0.0
  0
LINE
  8
0
 10
-71.99227142333984
 20
0.165176123380661
 30
0.0
 11
-58.192283630371094
 21
0.165176123380661
 31
0.0
  0
LINE
  8
0
 10
-95.79227447509766
 20
-56.23481369018555
 30
0.0
 11
-95.79227447509766
 21
-42.434810638427734
 31
0.0
  0
LINE
  8
0
 10
42.80774688720703
 20
55.56517028808594
 30
0.0
 11
56.607730865478516
 21
55.56517028808594
 31
0.0
  0
LINE
  8
0
 10
-76.99227905273438
 20
-49.334808349609375
 30
0.0
 11
-76.99227905273438
 21
-42.434810638427734
 31
0.0
  0
LINE
  8
0
 10
-37.392269134521484
 20
41.76517105102539
 30
0.0
 11
-37.392269134521484
 21
48.6651725769043
 31
0.0
  0
LINE
  8
0
 10
59.607666015625
 20
0.165176123380661
 30
0.0
 11
73.40766143798828
 21
0.165176123380661
 31
0.0
  0
LINE
  8
0
 10
-34.39228820800781
 20
-18.63481903076172
 30
0.0
 11
-20.59229850769043
 21
-18.63481903076172
 31
0.0
  0
LINE
  8
0
 10
-32.392269134521484
 20
55.56517028808594
 30
0.0
 11
-18.592266082763672
 21
55.56517028808594
 31
0.0
  0
LINE
  8
0
 10
-20.59229850769043
 20
-4.834823131561279
 30
0.0
 11
-27.492294311523438
 21
-4.834823131561279
 31
0.0
  0
LINE
  8
0
 10
-34.39228820800781
 20
7.065177917480469
 30
0.0
 11
-34.39228820800781
 21
0.165176123380661
 31
0.0
  0
LINE
  8
0
 10
-149.1922607421875
 20
18.96517562866211
 30
0.0
 11
-149.1922607421875
 21
32.76517105102539
 31
0.0
  0
LINE
  8
0
 10
59.607666015625
 20
-49.33481979370117
 30
0.0
 11
59.607666015625
 21
-56.234825134277344
 31
0.0
  0
LINE
  8
0
 10
-149.1922607421875
 20
13.965178489685059
 30
0.0
 11
-135.3922576904297
 21
13.965178489685059
 31
0.0
  0
LINE
  8
0
 10
-149.1922607421875
 20
18.96517562866211
 30
0.0
 11
-135.3922576904297
 21
18.96517562866211
 31
0.0
  0
LINE
  8
0
 10
-114.5922622680664
 20
0.165176123380661
 30
0.0
 11
-128.39227294921875
 21
0.165176123380661
 31
0.0
  0
LINE
  8
0
 10
-112.59225463867188
 20
55.56517028808594
 30
0.0
 11
-126.39226531982422
 21
55.56517028808594
 31
0.0
  0
LINE
  8
0
 10
3.2077064514160156
 20
-18.63481903076172
 30
0.0
 11
17.007699966430664
 21
-18.63481903076172
 31
0.0
  0
LINE
  8
0
 10
-34.39228820800781
 20
-37.434810638427734
 30
0.0
 11
-34.39228820800781
 21
-23.63481903076172
 31
0.0
  0
LINE
  8
0
 10
-34.39228820800781
 20
-37.434810638427734
 30
0.0
 11
-20.59229850769043
 21
-37.434810638427734
 31
0.0
  0
LINE
  8
0
 10
-88.7922592163086
 20
41.76517105102539
 30
0.0
 11
-88.7922592163086
 21
48.6651725769043
 31
0.0
  0
LINE
  8
0
 10
-88.7922592163086
 20
41.76517105102539
 30
0.0
 11
-74.99225616455078
 21
41.76517105102539
 31
0.0
  0
LINE
  8
0
 10
24.00774574279785
 20
55.56517028808594
 30
0.0
 11
37.80773162841797
 21
55.56517028808594
 31
0.0
  0
LINE
  8
0
 10
3.2077064514160156
 20
-37.434810638427734
 30
0.0
 11
3.2077064514160156
 21
-23.63481903076172
 31
0.0
  0
LINE
  8
0
 10
78.40766143798828
 20
-56.234825134277344
 30
0.0
 11
92.2076416015625
 21
-56.234825134277344
 31
0.0
  0
LINE
  8
0
 10
3.2077064514160156
 20
-37.434810638427734
 30
0.0
 11
17.007699966430664
 21
-37.434810638427734
 31
0.0
  0
LINE
  8
0
 10
22.007692337036133
 20
-37.434810638427734
 30
0.0
 11
35.80768966674805
 21
-37.434810638427734
 31
0.0
  0
LINE
  8
0
 10
35.80768966674805
 20
-18.63481903076172
 30
0.0
 11
35.80768966674805
 21
-11.734820365905762
 31
0.0
  0
LINE
  8
0
 10
59.607666015625
 20
-37.434810638427734
 30
0.0
 11
59.607666015625
 21
-23.63481903076172
 31
0.0
  0
LINE
  8
0
 10
54.607669830322266
 20
-56.23481369018555
 30
0.0
 11
40.807682037353516
 21
-56.23481369018555
 31
0.0
  0
LINE
  8
0
 10
40.807682037353516
 20
-11.734820365905762
 30
0.0
 11
40.807682037353516
 21
-4.834823131561279
 31
0.0
  0
LINE
  8
0
 10
54.607669830322266
 20
-18.63481903076172
 30
0.0
 11
54.607669830322266
 21
-11.734820365905762
 31
0.0
  0
LINE
  8
0
 10
54.607669830322266
 20
7.065177917480469
 30
0.0
 11
54.607669830322266
 21
13.965178489685059
 31
0.0
  0
LINE
  8
0
 10
115.00765228271484
 20
-53.33482360839844
 30
0.0
 11
115.00765228271484
 21
-46.43482208251953
 31
0.0
  0
LINE
  8
0
 10
-125.56727600097656
 20
-23.63481903076172
 30
0.0
 11
-136.29226684570312
 21
-23.63481903076172
 31
0.0
  0
LINE
  8
0
 10
99.20764923095703
 20
-37.434810638427734
 30
0.0
 11
92.30765533447266
 21
-37.434810638427734
 31
0.0
  0
LINE
  8
0
 10
99.20764923095703
 20
-37.434810638427734
 30
0.0
 11
99.20764923095703
 21
-23.63481903076172
 31
0.0
  0
LINE
  8
0
 10
105.10765838623047
 20
-7.909822463989258
 30
0.0
 11
105.10765838623047
 21
-4.834823131561279
 31
0.0
  0
LINE
  8
0
 10
120.00765228271484
 20
-46.43482208251953
 30
0.0
 11
133.80763244628906
 21
-46.43482208251953
 31
0.0
  0
LINE
  8
0
 10
-95.79227447509766
 20
0.165176123380661
 30
0.0
 11
-95.79227447509766
 21
7.065177917480469
 31
0.0
  0
LINE
  8
0
 10
-71.99227142333984
 20
7.065177917480469
 30
0.0
 11
-71.99227142333984
 21
0.165176123380661
 31
0.0
  0
LINE
  8
0
 10
-90.79227447509766
 20
32.76517105102539
 30
0.0
 11
-90.79227447509766
 21
18.96517562866211
 31
0.0
  0
LINE
  8
0
 10
-90.79227447509766
 20
32.76517105102539
 30
0.0
 11
-76.99227905273438
 21
32.76517105102539
 31
0.0
  0
LINE
  8
0
 10
144.80772399902344
 20
0.165176123380661
 30
0.0
 11
151.70770263671875
 21
0.165176123380661
 31
0.0
  0
LINE
  8
0
 10
152.60763549804688
 20
-60.23482131958008
 30
0.0
 11
152.60763549804688
 21
-46.43482208251953
 31
0.0
  0
LINE
  8
0
 10
-90.79227447509766
 20
0.165176123380661
 30
0.0
 11
-76.99227905273438
 21
0.165176123380661
 31
0.0
  0
LINE
  8
0
 10
-135.3922576904297
 20
-56.23481369018555
 30
0.0
 11
-135.3922576904297
 21
-49.334808349609375
 31
0.0
  0
LINE
  8
0
 10
-128.39227294921875
 20
-49.334808349609375
 30
0.0
 11
-128.39227294921875
 21
-42.434810638427734
 31
0.0
  0
LINE
  8
0
 10
118.00765228271484
 20
32.76517105102539
 30
0.0
 11
118.00765228271484
 21
18.96517562866211
 31
0.0
  0
LINE
  8
0
 10
144.80772399902344
 20
-4.834823131561279
 30
0.0
 11
144.80772399902344
 21
-18.63481903076172
 31
0.0
  0
LINE
  8
0
 10
-109.59226989746094
 20
-23.63481903076172
 30
0.0
 11
-109.59226989746094
 21
-37.434810638427734
 31
0.0
  0
LINE
  8
0
 10
-109.59226989746094
 20
-23.63481903076172
 30
0.0
 11
-95.79227447509766
 21
-23.63481903076172
 31
0.0
  0
LINE
  8
0
 10
54.607669830322266
 20
18.96517562866211
 30
0.0
 11
40.807682037353516
 21
18.96517562866211
 31
0.0
  0
LINE
  8
0
 10
158.60769653320312
 20
-4.834823131561279
 30
0.0
 11
151.70770263671875
 21
-4.834823131561279
 31
0.0
  0
LINE
  8
0
 10
54.607669830322266
 20
18.96517562866211
 30
0.0
 11
54.607669830322266
 21
32.76517105102539
 31
0.0
  0
LINE
  8
0
 10
73.40766143798828
 20
25.865175247192383
 30
0.0
 11
73.40766143798828
 21
32.76517105102539
 31
0.0
  0
LINE
  8
0
 10
-71.99227142333984
 20
-18.63481903076172
 30
0.0
 11
-58.192283630371094
 21
-18.63481903076172
 31
0.0
  0
LINE
  8
0
 10
61.607749938964844
 20
41.76517105102539
 30
0.0
 11
61.607749938964844
 21
55.56517028808594
 31
0.0
  0
LINE
  8
0
 10
-39.39228820800781
 20
18.96517562866211
 30
0.0
 11
-39.39228820800781
 21
32.76517105102539
 31
0.0
  0
LINE
  8
0
 10
80.40775299072266
 20
41.76517105102539
 30
0.0
 11
80.40775299072266
 21
55.56517028808594
 31
0.0
  0
LINE
  8
0
 10
-53.19228744506836
 20
13.965178489685059
 30
0.0
 11
-53.19228744506836
 21
0.165176123380661
 31
0.0
  0
LINE
  8
0
 10
80.40775299072266
 20
41.76517105102539
 30
0.0
 11
94.2077407836914
 21
41.76517105102539
 31
0.0
  0
LINE
  8
0
 10
-53.19228744506836
 20
13.965178489685059
 30
0.0
 11
-39.39228820800781
 21
13.965178489685059
 31
0.0
  0
LINE
  8
0
 10
-18.592266082763672
 20
41.76517105102539
 30
0.0
 11
-18.592266082763672
 21
55.56517028808594
 31
0.0
  0
LINE
  8
0
 10
135.80770874023438
 20
55.56517028808594
 30
0.0
 11
122.00772857666016
 21
55.56517028808594
 31
0.0
  0
LINE
  8
0
 10
0.20773687958717346
 20
48.6651725769043
 30
0.0
 11
0.20773687958717346
 21
55.56517028808594
 31
0.0
  0
LINE
  8
0
 10
111.1076431274414
 20
13.965178489685059
 30
0.0
 11
118.00765228271484
 21
13.965178489685059
 31
0.0
  0
LINE
  8
0
 10
162.56997680664062
 20
-64.25642395019531
 30
0.0
 11
-153.22998046875
 21
-64.25642395019531
 31
0.0
  0
LINE
  8
0
 10
78.40766143798828
 20
13.965178489685059
 30
0.0
 11
92.2076416015625
 21
13.965178489685059
 31
0.0
  0
LINE
  8
0
 10
-149.1922607421875
 20
-18.63481903076172
 30
0.0
 11
-149.1922607421875
 21
-4.834823131561279
 31
0.0
  0
LINE
  8
0
 10
-15.59229564666748
 20
-4.834823131561279
 30
0.0
 11
-1.7923015356063843
 21
-4.834823131561279
 31
0.0
  0
LINE
  8
0
 10
-135.3922576904297
 20
0.165176123380661
 30
0.0
 11
-135.3922576904297
 21
13.965178489685059
 31
0.0
  0
LINE
  8
0
 10
-149.1922607421875
 20
-18.63481903076172
 30
0.0
 11
-135.3922576904297
 21
-18.63481903076172
 31
0.0
  0
LINE
  8
0
 10
-128.39227294921875
 20
13.965178489685059
 30
0.0
 11
-128.39227294921875
 21
0.165176123380661
 31
0.0
  0
LINE
  8
0
 10
-71.99227142333984
 20
-37.434810638427734
 30
0.0
 11
-58.192283630371094
 21
-37.434810638427734
 31
0.0
  0
LINE
  8
0
 10
-126.39226531982422
 20
41.76517105102539
 30
0.0
 11
-126.39226531982422
 21
48.6651725769043
 31
0.0
  0
LINE
  8
0
 10
120.00765228271484
 20
-46.43482208251953
 30
0.0
 11
120.00765228271484
 21
-53.33482360839844
 31
0.0
  0
LINE
  8
0
 10
-93.7922592163086
 20
48.6651725769043
 30
0.0
 11
-93.7922592163086
 21
55.56517028808594
 31
0.0
  0
LINE
  8
0
 10
-93.7922592163086
 20
48.6651725769043
 30
0.0
 11
-93.7922592163086
 21
41.76517105102539
 31
0.0
  0
LINE
  8
0
 10
-34.39228820800781
 20
-23.63481903076172
 30
0.0
 11
-20.59229850769043
 21
-23.63481903076172
 31
0.0
  0
LINE
  8
0
 10
-11.192309379577637
 20
-42.434810638427734
 30
0.0
 11
-14.26730728149414
 21
-42.434810638427734
 31
0.0
  0
LINE
  8
0
 10
-88.7922592163086
 20
55.56517028808594
 30
0.0
 11
-74.99225616455078
 21
55.56517028808594
 31
0.0
  0
LINE
  8
0
 10
-11.192309379577637
 20
-42.434810638427734
 30
0.0
 11
-11.192309379577637
 21
-56.23481369018555
 31
0.0
  0
LINE
  8
0
 10
26.210372924804688
 20
-56.23481369018555
 30
0.0
 11
26.210372924804688
 21
-42.434810638427734
 31
0.0
  0
LINE
  8
0
 10
26.210372924804688
 20
-56.23481369018555
 30
0.0
 11
32.81037139892578
 21
-56.23481369018555
 31
0.0
  0
LINE
  8
0
 10
35.80768966674805
 20
-11.734820365905762
 30
0.0
 11
35.80768966674805
 21
-4.834823131561279
 31
0.0
  0
LINE
  8
0
 10
92.2076416015625
 20
-42.434818267822266
 30
0.0
 11
85.30764770507812
 21
-42.434818267822266
 31
0.0
  0
LINE
  8
0
 10
40.807682037353516
 20
-56.23481369018555
 30
0.0
 11
40.807682037353516
 21
-42.434810638427734
 31
0.0
  0
LINE
  8
0
 10
59.607666015625
 20
-18.63481903076172
 30
0.0
 11
59.607666015625
 21
-11.734820365905762
 31
0.0
  0
LINE
  8
0
 10
40.807682037353516
 20
-4.834823131561279
 30
0.0
 11
54.607669830322266
 21
-4.834823131561279
 31
0.0
  0
LINE
  8
0
 10
144.80772399902344
 20
13.965178489685059
 30
0.0
 11
144.80772399902344
 21
0.165176123380661
 31
0.0
  0
LINE
  8
0
 10
42.80774688720703
 20
41.76517105102539
 30
0.0
 11
56.607730865478516
 21
41.76517105102539
 31
0.0
  0
LINE
  8
0
 10
59.607666015625
 20
-18.63481903076172
 30
0.0
 11
73.40766143798828
 21
-18.63481903076172
 31
0.0
  0
LINE
  8
0
 10
17.007699966430664
 20
18.96517562866211
 30
0.0
 11
17.007699966430664
 21
32.76517105102539
 31
0.0
  0
LINE
  8
0
 10
73.40766143798828
 20
18.96517562866211
 30
0.0
 11
73.40766143798828
 21
25.865175247192383
 31
0.0
  0
LINE
  8
0
 10
-128.39227294921875
 20
13.965178489685059
 30
0.0
 11
-114.5922622680664
 21
13.965178489685059
 31
0.0
  0
LINE
  8
0
 10
-95.79227447509766
 20
18.96517562866211
 30
0.0
 11
-95.79227447509766
 21
32.76517105102539
 31
0.0
  0
LINE
  8
0
 10
-109.59226989746094
 20
13.965178489685059
 30
0.0
 11
-109.59226989746094
 21
7.065177917480469
 31
0.0
  0
LINE
  8
0
 10
133.80763244628906
 20
-60.23482131958008
 30
0.0
 11
133.80763244628906
 21
-53.33482360839844
 31
0.0
  0
LINE
  8
0
 10
105.10765838623047
 20
-7.909822463989258
 30
0.0
 11
105.10765838623047
 21
-18.63481903076172
 31
0.0
  0
LINE
  8
0
 10
111.4012222290039
 20
-18.63482666015625
 30
0.0
 11
111.4012222290039
 21
-7.909824371337891
 31
0.0
  0
LINE
  8
0
 10
-95.79227447509766
 20
7.065177917480469
 30
0.0
 11
-95.79227447509766
 21
13.965178489685059
 31
0.0
  0
LINE
  8
0
 10
104.20764923095703
 20
18.96517562866211
 30
0.0
 11
111.1076431274414
 21
18.96517562866211
 31
0.0
  0
LINE
  8
0
 10
111.4012222290039
 20
-18.63482666015625
 30
0.0
 11
118.00765228271484
 21
-18.63482666015625
 31
0.0
  0
LINE
  8
0
 10
135.80770874023438
 20
48.6651725769043
 30
0.0
 11
135.80770874023438
 21
55.56517028808594
 31
0.0
  0
LINE
  8
0
 10
-34.39228820800781
 20
0.165176123380661
 30
0.0
 11
-27.492294311523438
 21
0.165176123380661
 31
0.0
  0
LINE
  8
0
 10
158.60769653320312
 20
41.76517105102539
 30
0.0
 11
144.80772399902344
 21
41.76517105102539
 31
0.0
  0
LINE
  8
0
 10
-128.39227294921875
 20
-56.23481369018555
 30
0.0
 11
-114.5922622680664
 21
-56.23481369018555
 31
0.0
  0
LINE
  8
0
 10
118.00765228271484
 20
0.165176123380661
 30
0.0
 11
118.00765228271484
 21
13.965178489685059
 31
0.0
  0
LINE
  8
0
 10
144.80772399902344
 20
-18.63481903076172
 30
0.0
 11
158.60769653320312
 21
-18.63481903076172
 31
0.0
  0
LINE
  8
0
 10
-90.79227447509766
 20
-23.63481903076172
 30
0.0
 11
-90.79227447509766
 21
-37.434810638427734
 31
0.0
  0
LINE
  8
0
 10
-90.79227447509766
 20
-23.63481903076172
 30
0.0
 11
-76.99227905273438
 21
-23.63481903076172
 31
0.0
  0
LINE
  8
0
 10
-71.99227142333984
 20
-37.434810638427734
 30
0.0
 11
-71.99227142333984
 21
-30.53481674194336
 31
0.0
  0
LINE
  8
0
 10
-71.99227142333984
 20
-23.63481903076172
 30
0.0
 11
-58.192283630371094
 21
-23.63481903076172
 31
0.0
  0
LINE
  8
0
 10
-53.19228744506836
 20
25.865175247192383
 30
0.0
 11
-53.19228744506836
 21
18.96517562866211
 31
0.0
  0
LINE
  8
0
 10
-53.19228744506836
 20
25.865175247192383
 30
0.0
 11
-53.19228744506836
 21
32.76517105102539
 31
0.0
  0
LINE
  8
0
 10
-90.79227447509766
 20
-42.434810638427734
 30
0.0
 11
-90.79227447509766
 21
-56.23481369018555
 31
0.0
  0
LINE
  8
0
 10
-58.192283630371094
 20
0.165176123380661
 30
0.0
 11
-58.192283630371094
 21
13.965178489685059
 31
0.0
  0
LINE
  8
0
 10
-90.79227447509766
 20
-42.434810638427734
 30
0.0
 11
-76.99227905273438
 21
-42.434810638427734
 31
0.0
  0
LINE
  8
0
 10
-37.392269134521484
 20
48.6651725769043
 30
0.0
 11
-37.392269134521484
 21
55.56517028808594
 31
0.0
  0
LINE
  8
0
 10
59.607666015625
 20
13.965178489685059
 30
0.0
 11
73.40766143798828
 21
13.965178489685059
 31
0.0
  0
LINE
  8
0
 10
-135.3922576904297
 20
48.6651725769043
 30
0.0
 11
-135.3922576904297
 21
55.56517028808594
 31
0.0
  0
LINE
  8
0
 10
0.20773687958717346
 20
41.76517105102539
 30
0.0
 11
0.20773687958717346
 21
48.6651725769043
 31
0.0
  0
LINE
  8
0
 10
144.80772399902344
 20
-23.63481903076172
 30
0.0
 11
158.60769653320312
 21
-23.63481903076172
 31
0.0
  0
LINE
  8
0
 10
59.607666015625
 20
-56.234825134277344
 30
0.0
 11
73.40766143798828
 21
-56.234825134277344
 31
0.0
  0
LINE
  8
0
 10
-135.3922576904297
 20
-4.834823131561279
 30
0.0
 11
-135.3922576904297
 21
-18.63481903076172
 31
0.0
  0
LINE
  8
0
 10
-62.389617919921875
 20
-56.23481369018555
 30
0.0
 11
-62.389617919921875
 21
-42.434810638427734
 31
0.0
  0
LINE
  8
0
 10
-62.389617919921875
 20
-56.23481369018555
 30
0.0
 11
-68.9896240234375
 21
-56.23481369018555
 31
0.0
  0
LINE
  8
0
 10
-53.19228744506836
 20
-37.434810638427734
 30
0.0
 11
-39.39228820800781
 21
-37.434810638427734
 31
0.0
  0
LINE
  8
0
 10
-1.7923015356063843
 20
18.96517562866211
 30
0.0
 11
-1.7923015356063843
 21
32.76517105102539
 31
0.0
  0
LINE
  8
0
 10
-107.5922622680664
 20
48.6651725769043
 30
0.0
 11
-107.5922622680664
 21
55.56517028808594
 31
0.0
  0
LINE
  8
0
 10
-24.992300033569336
 20
-42.434810638427734
 30
0.0
 11
-24.992300033569336
 21
-56.23481369018555
 31
0.0
  0
LINE
  8
0
 10
-24.992300033569336
 20
-42.434810638427734
 30
0.0
 11
-14.26730728149414
 21
-42.434810638427734
 31
0.0
  0
LINE
  8
0
 10
-69.99226379394531
 20
55.56517028808594
 30
0.0
 11
-69.99226379394531
 21
48.6651725769043
 31
0.0
  0
LINE
  8
0
 10
103.2077407836914
 20
55.56517028808594
 30
0.0
 11
117.00772857666016
 21
55.56517028808594
 31
0.0
  0
LINE
  8
0
 10
3.2077064514160156
 20
-23.63481903076172
 30
0.0
 11
17.007699966430664
 21
-23.63481903076172
 31
0.0
  0
LINE
  8
0
 10
3.2077064514160156
 20
0.165176123380661
 30
0.0
 11
17.007699966430664
 21
0.165176123380661
 31
0.0
  0
LINE
  8
0
 10
26.210372924804688
 20
-42.434810638427734
 30
0.0
 11
32.81037139892578
 21
-42.434810638427734
 31
0.0
  0
LINE
  8
0
 10
40.807682037353516
 20
0.165176123380661
 30
0.0
 11
40.807682037353516
 21
13.965178489685059
 31
0.0
  0
LINE
  8
0
 10
54.607669830322266
 20
-11.734820365905762
 30
0.0
 11
54.607669830322266
 21
-4.834823131561279
 31
0.0
  0
LINE
  8
0
 10
40.807682037353516
 20
0.165176123380661
 30
0.0
 11
54.607669830322266
 21
0.165176123380661
 31
0.0
  0
LINE
  8
0
 10
-15.59229564666748
 20
32.76517105102539
 30
0.0
 11
-1.7923015356063843
 21
32.76517105102539
 31
0.0
  0
LINE
  8
0
 10
78.40766143798828
 20
-18.63481903076172
 30
0.0
 11
85.03006744384766
 21
-18.63481903076172
 31
0.0
  0
LINE
  8
0
 10
-109.59226989746094
 20
7.065177917480469
 30
0.0
 11
-109.59226989746094
 21
0.165176123380661
 31
0.0
  0
LINE
  8
0
 10
144.80772399902344
 20
18.96517562866211
 30
0.0
 11
151.70770263671875
 21
18.96517562866211
 31
0.0
  0
LINE
  8
0
 10
-90.79227447509766
 20
18.96517562866211
 30
0.0
 11
-76.99227905273438
 21
18.96517562866211
 31
0.0
  0
LINE
  8
0
 10
151.70770263671875
 20
0.165176123380661
 30
0.0
 11
158.60769653320312
 21
0.165176123380661
 31
0.0
  0
LINE
  8
0
 10
103.2077407836914
 20
41.76517105102539
 30
0.0
 11
117.00772857666016
 21
41.76517105102539
 31
0.0
  0
LINE
  8
0
 10
22.007692337036133
 20
18.96517562866211
 30
0.0
 11
22.007692337036133
 21
32.76517105102539
 31
0.0
  0
LINE
  8
0
 10
22.007692337036133
 20
18.96517562866211
 30
0.0
 11
35.80768966674805
 21
18.96517562866211
 31
0.0
  0
LINE
  8
0
 10
144.80772399902344
 20
41.76517105102539
 30
0.0
 11
144.80772399902344
 21
48.6651725769043
 31
0.0
  0
LINE
  8
0
 10
111.4012222290039
 20
-7.909824371337891
 30
0.0
 11
111.4012222290039
 21
-4.834823131561279
 31
0.0
  0
LINE
  8
0
 10
-128.39227294921875
 20
-42.434810638427734
 30
0.0
 11
-125.3172607421875
 21
-42.434810638427734
 31
0.0
  0
LINE
  8
0
 10
40.807682037353516
 20
32.76517105102539
 30
0.0
 11
54.607669830322266
 21
32.76517105102539
 31
0.0
  0
LINE
  8
0
 10
-109.59226989746094
 20
-56.23481369018555
 30
0.0
 11
-95.79227447509766
 21
-56.23481369018555
 31
0.0
  0
LINE
  8
0
 10
-53.19228744506836
 20
18.96517562866211
 30
0.0
 11
-39.39228820800781
 21
18.96517562866211
 31
0.0
  0
LINE
  8
0
 10
-122.49227142333984
 20
-37.434810638427734
 30
0.0
 11
-122.49227142333984
 21
-23.63481903076172
 31
0.0
  0
LINE
  8
0
 10
-90.79227447509766
 20
-56.23481369018555
 30
0.0
 11
-76.99227905273438
 21
-56.23481369018555
 31
0.0
  0
LINE
  8
0
 10
75.4077377319336
 20
41.76517105102539
 30
0.0
 11
75.4077377319336
 21
55.56517028808594
 31
0.0
  0
LINE
  8
0
 10
-51.1922721862793
 20
41.76517105102539
 30
0.0
 11
-51.1922721862793
 21
55.56517028808594
 31
0.0
  0
LINE
  8
0
 10
-39.39228820800781
 20
-18.63481903076172
 30
0.0
 11
-39.39228820800781
 21
-4.834823131561279
 31
0.0
  0
LINE
  8
0
 10
-51.1922721862793
 20
41.76517105102539
 30
0.0
 11
-37.392269134521484
 21
41.76517105102539
 31
0.0
  0
LINE
  8
0
 10
-149.1922607421875
 20
55.56517028808594
 30
0.0
 11
-135.3922576904297
 21
55.56517028808594
 31
0.0
  0
LINE
  8
0
 10
-20.59229850769043
 20
-18.63481903076172
 30
0.0
 11
-20.59229850769043
 21
-11.734820365905762
 31
0.0
  0
LINE
  8
0
 10
103.2077407836914
 20
41.76517105102539
 30
0.0
 11
103.2077407836914
 21
55.56517028808594
 31
0.0
  0
LINE
  8
0
 10
117.00772857666016
 20
41.76517105102539
 30
0.0
 11
117.00772857666016
 21
55.56517028808594
 31
0.0
  0
LINE
  8
0
 10
-149.1922607421875
 20
-4.834823131561279
 30
0.0
 11
-135.3922576904297
 21
-4.834823131561279
 31
0.0
  0
LINE
  8
0
 10
-135.3922576904297
 20
18.96517562866211
 30
0.0
 11
-135.3922576904297
 21
32.76517105102539
 31
0.0
  0
LINE
  8
0
 10
-71.99227142333984
 20
-30.53481674194336
 30
0.0
 11
-71.99227142333984
 21
-23.63481903076172
 31
0.0
  0
LINE
  8
0
 10
-62.389617919921875
 20
-42.434810638427734
 30
0.0
 11
-68.9896240234375
 21
-42.434810638427734
 31
0.0
  0
LINE
  8
0
 10
-114.5922622680664
 20
32.76517105102539
 30
0.0
 11
-128.39227294921875
 21
32.76517105102539
 31
0.0
  0
LINE
  8
0
 10
-53.19228744506836
 20
-23.63481903076172
 30
0.0
 11
-39.39228820800781
 21
-23.63481903076172
 31
0.0
  0
LINE
  8
0
 10
24.00774574279785
 20
48.6651725769043
 30
0.0
 11
24.00774574279785
 21
41.76517105102539
 31
0.0
  0
LINE
  8
0
 10
24.00774574279785
 20
48.6651725769043
 30
0.0
 11
24.00774574279785
 21
55.56517028808594
 31
0.0
  0
LINE
  8
0
 10
-20.59229850769043
 20
-37.434810638427734
 30
0.0
 11
-20.59229850769043
 21
-23.63481903076172
 31
0.0
  0
LINE
  8
0
 10
37.80773162841797
 20
41.76517105102539
 30
0.0
 11
37.80773162841797
 21
48.6651725769043
 31
0.0
  0
LINE
  8
0
 10
-74.99225616455078
 20
48.6651725769043
 30
0.0
 11
-74.99225616455078
 21
55.56517028808594
 31
0.0
  0
LINE
  8
0
 10
-12.517295837402344
 20
-37.434810638427734
 30
0.0
 11
-1.7923015356063843
 21
-37.434810638427734
 31
0.0
  0
LINE
  8
0
 10
22.007692337036133
 20
-23.63481903076172
 30
0.0
 11
22.007692337036133
 21
-37.434810638427734
 31
0.0
  0
LINE
  8
0
 10
22.007692337036133
 20
-23.63481903076172
 30
0.0
 11
35.80768966674805
 21
-23.63481903076172
 31
0.0
  0
LINE
  8
0
 10
35.80768966674805
 20
13.965178489685059
 30
0.0
 11
35.80768966674805
 21
0.165176123380661
 31
0.0
  0
LINE
  8
0
 10
-1.7923015356063843
 20
0.165176123380661
 30
0.0
 11
-1.7923015356063843
 21
13.965178489685059
 31
0.0
  0
LINE
  8
0
 10
-34.39228820800781
 20
-4.834823131561279
 30
0.0
 11
-27.492294311523438
 21
-4.834823131561279
 31
0.0
  0
LINE
  8
0
 10
40.807682037353516
 20
13.965178489685059
 30
0.0
 11
54.607669830322266
 21
13.965178489685059
 31
0.0
  0
LINE
  8
0
 10
101.20764923095703
 20
-56.40982437133789
 30
0.0
 11
101.20764923095703
 21
-60.23482131958008
 31
0.0
  0
LINE
  8
0
 10
73.40766143798828
 20
-37.434810638427734
 30
0.0
 11
73.40766143798828
 21
-23.63481903076172
 31
0.0
  0
LINE
  8
0
 10
59.607666015625
 20
18.96517562866211
 30
0.0
 11
73.40766143798828
 21
18.96517562866211
 31
0.0
  0
LINE
  8
0
 10
78.40766143798828
 20
-11.734820365905762
 30
0.0
 11
78.40766143798828
 21
-18.63481903076172
 31
0.0
  0
LINE
  8
0
 10
-109.59226989746094
 20
-37.434810638427734
 30
0.0
 11
-102.69226837158203
 21
-37.434810638427734
 31
0.0
  0
LINE
  8
0
 10
111.1076431274414
 20
0.165176123380661
 30
0.0
 11
118.00765228271484
 21
0.165176123380661
 31
0.0
  0
LINE
  8
0
 10
78.40766143798828
 20
-11.734820365905762
 30
0.0
 11
78.40766143798828
 21
-4.834823131561279
 31
0.0
  0
LINE
  8
0
 10
-128.39227294921875
 20
-4.834823131561279
 30
0.0
 11
-128.39227294921875
 21
-18.63481903076172
 31
0.0
  0
LINE
  8
0
 10
120.00765228271484
 20
-53.33482360839844
 30
0.0
 11
120.00765228271484
 21
-60.23482131958008
 31
0.0
  0
LINE
  8
0
 10
-128.39227294921875
 20
-4.834823131561279
 30
0.0
 11
-114.5922622680664
 21
-4.834823131561279
 31
0.0
  0
LINE
  8
0
 10
-109.59226989746094
 20
0.165176123380661
 30
0.0
 11
-95.79227447509766
 21
0.165176123380661
 31
0.0
  0
LINE
  8
0
 10
-95.79227447509766
 20
-18.63481903076172
 30
0.0
 11
-95.79227447509766
 21
-4.834823131561279
 31
0.0
  0
LINE
  8
0
 10
-90.79227447509766
 20
-4.834823131561279
 30
0.0
 11
-90.79227447509766
 21
-18.63481903076172
 31
0.0
  0
LINE
  8
0
 10
3.2077064514160156
 20
13.965178489685059
 30
0.0
 11
17.007699966430664
 21
13.965178489685059
 31
0.0
  0
LINE
  8
0
 10
-90.79227447509766
 20
-4.834823131561279
 30
0.0
 11
-76.99227905273438
 21
-4.834823131561279
 31
0.0
  0
LINE
  8
0
 10
158.60769653320312
 20
0.165176123380661
 30
0.0
 11
158.60769653320312
 21
13.965178489685059
 31
0.0
  0
LINE
  8
0
 10
104.20764923095703
 20
32.76517105102539
 30
0.0
 11
118.00765228271484
 21
32.76517105102539
 31
0.0
  0
LINE
  8
0
 10
122.00772857666016
 20
41.76517105102539
 30
0.0
 11
135.80770874023438
 21
41.76517105102539
 31
0.0
  0
LINE
  8
0
 10
-149.1922607421875
 20
-56.23481369018555
 30
0.0
 11
-135.3922576904297
 21
-56.23481369018555
 31
0.0
  0
LINE
  8
0
 10
-135.3922576904297
 20
-49.334808349609375
 30
0.0
 11
-135.3922576904297
 21
-42.434810638427734
 31
0.0
  0
LINE
  8
0
 10
137.40113830566406
 20
60.54356002807617
 30
0.0
 11
162.56997680664062
 21
60.54356002807617
 31
0.0
  0
LINE
  8
0
 10
-53.19228744506836
 20
-37.434810638427734
 30
0.0
 11
-53.19228744506836
 21
-23.63481903076172
 31
0.0
  0
LINE
  8
0
 10
35.80768966674805
 20
18.96517562866211
 30
0.0
 11
35.80768966674805
 21
32.76517105102539
 31
0.0
  0
LINE
  8
0
 10
-71.99227142333984
 20
13.965178489685059
 30
0.0
 11
-71.99227142333984
 21
7.065177917480469
 31
0.0
  0
LINE
  8
0
 10
40.807682037353516
 20
18.96517562866211
 30
0.0
 11
40.807682037353516
 21
32.76517105102539
 31
0.0
  0
LINE
  8
0
 10
-71.99227142333984
 20
13.965178489685059
 30
0.0
 11
-58.192283630371094
 21
13.965178489685059
 31
0.0
  0
LINE
  8
0
 10
59.607666015625
 20
18.96517562866211
 30
0.0
 11
59.607666015625
 21
32.76517105102539
 31
0.0
  0
LINE
  8
0
 10
59.607666015625
 20
32.76517105102539
 30
0.0
 11
73.40766143798828
 21
32.76517105102539
 31
0.0
  0
LINE
  8
0
 10
-95.79227447509766
 20
-42.434810638427734
 30
0.0
 11
-102.69226837158203
 21
-42.434810638427734
 31
0.0
  0
LINE
  8
0
 10
61.607749938964844
 20
55.56517028808594
 30
0.0
 11
75.4077377319336
 21
55.56517028808594
 31
0.0
  0
LINE
  8
0
 10
-53.19228744506836
 20
0.165176123380661
 30
0.0
 11
-39.39228820800781
 21
0.165176123380661
 31
0.0
  0
LINE
  8
0
 10
80.40775299072266
 20
55.56517028808594
 30
0.0
 11
94.2077407836914
 21
55.56517028808594
 31
0.0
  0
LINE
  8
0
 10
-149.1922607421875
 20
41.76517105102539
 30
0.0
 11
-149.1922607421875
 21
55.56517028808594
 31
0.0
  0
LINE
  8
0
 10
-149.1922607421875
 20
41.76517105102539
 30
0.0
 11
-135.3922576904297
 21
41.76517105102539
 31
0.0
  0
LINE
  8
0
 10
-128.39227294921875
 20
-49.334808349609375
 30
0.0
 11
-128.39227294921875
 21
-56.23481369018555
 31
0.0
  0
LINE
  8
0
 10
122.00772857666016
 20
41.76517105102539
 30
0.0
 11
122.00772857666016
 21
55.56517028808594
 31
0.0
  0
LINE
  8
0
 10
-90.79227447509766
 20
13.965178489685059
 30
0.0
 11
-90.79227447509766
 21
7.065177917480469
 31
0.0
  0
LINE
  8
0
 10
-20.59229850769043
 20
18.96517562866211
 30
0.0
 11
-20.59229850769043
 21
32.76517105102539
 31
0.0
  0
LINE
  8
0
 10
-34.39228820800781
 20
32.76517105102539
 30
0.0
 11
-20.59229850769043
 21
32.76517105102539
 31
0.0
  0
LINE
  8
0
 10
92.2076416015625
 20
0.165176123380661
 30
0.0
 11
92.2076416015625
 21
13.965178489685059
 31
0.0
  0
LINE
  8
0
 10
-27.492294311523438
 20
0.165176123380661
 30
0.0
 11
-20.59229850769043
 21
0.165176123380661
 31
0.0
  0
LINE
  8
0
 10
73.40766143798828
 20
-56.234825134277344
 30
0.0
 11
73.40766143798828
 21
-42.434818267822266
 31
0.0
  0
LINE
  8
0
 10
5.207736492156982
 20
55.56517028808594
 30
0.0
 11
19.007732391357422
 21
55.56517028808594
 31
0.0
  0
LINE
  8
0
 10
-114.5922622680664
 20
18.96517562866211
 30
0.0
 11
-114.5922622680664
 21
32.76517105102539
 31
0.0
  0
LINE
  8
0
 10
-68.9896240234375
 20
-49.334808349609375
 30
0.0
 11
-68.9896240234375
 21
-56.23481369018555
 31
0.0
  0
LINE
  8
0
 10
-68.9896240234375
 20
-49.334808349609375
 30
0.0
 11
-68.9896240234375
 21
-42.434810638427734
 31
0.0
  0
LINE
  8
0
 10
-114.5922622680664
 20
18.96517562866211
 30
0.0
 11
-128.39227294921875
 21
18.96517562866211
 31
0.0
  0
LINE
  8
0
 10
-126.39226531982422
 20
48.6651725769043
 30
0.0
 11
-126.39226531982422
 21
55.56517028808594
 31
0.0
  0
LINE
  8
0
 10
-93.7922592163086
 20
55.56517028808594
 30
0.0
 11
-107.5922622680664
 21
55.56517028808594
 31
0.0
  0
LINE
  8
0
 10
78.40766143798828
 20
-42.434818267822266
 30
0.0
 11
78.40766143798828
 21
-56.234825134277344
 31
0.0
  0
LINE
  8
0
 10
-74.99225616455078
 20
41.76517105102539
 30
0.0
 11
-74.99225616455078
 21
48.6651725769043
 31
0.0
  0
LINE
  8
0
 10
-15.59229564666748
 20
-23.63481903076172
 30
0.0
 11
-1.7923015356063843
 21
-23.63481903076172
 31
0.0
  0
LINE
  8
0
 10
92.2076416015625
 20
-56.234825134277344
 30
0.0
 11
92.2076416015625
 21
-42.434818267822266
 31
0.0
  0
LINE
  8
0
 10
3.2077064514160156
 20
32.76517105102539
 30
0.0
 11
17.007699966430664
 21
32.76517105102539
 31
0.0
  0
LINE
  8
0
 10
32.81037139892578
 20
-56.23481369018555
 30
0.0
 11
32.81037139892578
 21
-42.434810638427734
 31
0.0
  0
LINE
  8
0
 10
22.007692337036133
 20
-18.63481903076172
 30
0.0
 11
35.80768966674805
 21
-18.63481903076172
 31
0.0
  0
LINE
  8
0
 10
78.40766143798828
 20
-42.434818267822266
 30
0.0
 11
85.30764770507812
 21
-42.434818267822266
 31
0.0
  0
LINE
  8
0
 10
40.807682037353516
 20
-37.434810638427734
 30
0.0
 11
40.807682037353516
 21
-23.63481903076172
 31
0.0
  0
LINE
  8
0
 10
40.807682037353516
 20
-37.434810638427734
 30
0.0
 11
54.607669830322266
 21
-37.434810638427734
 31
0.0
  0
LINE
  8
0
 10
54.607669830322266
 20
-37.434810638427734
 30
0.0
 11
54.607669830322266
 21
-23.63481903076172
 31
0.0
  0
LINE
  8
0
 10
54.607669830322266
 20
0.165176123380661
 30
0.0
 11
54.607669830322266
 21
7.065177917480469
 31
0.0
  0
LINE
  8
0
 10
59.607666015625
 20
-11.734820365905762
 30
0.0
 11
59.607666015625
 21
-4.834823131561279
 31
0.0
  0
LINE
  8
0
 10
101.20764923095703
 20
-60.23482131958008
 30
0.0
 11
115.00765228271484
 21
-60.23482131958008
 31
0.0
  0
LINE
  8
0
 10
-58.192283630371094
 20
-37.434810638427734
 30
0.0
 11
-58.192283630371094
 21
-23.63481903076172
 31
0.0
  0
ENDSEC
  0
EOF
