  0
SECTION
  2
HEADER
  9
$ACADVER
  1
AC1009
  9
$INSBASE
 10
0.0
 20
0.0
 30
0.0
  9
$EXTMIN
 10
0.0
 20
0.0
 30
0.0
  9
$EXTMAX
 10
0.0
 20
0.0
 30
0.0
  0
ENDSEC
  0
SECTION
  2
TABLES
  0
TABLE
  2
VPORT
 70
1
  0
VPORT
  2
*ACTIVE
 70
0
 10
0.0
 20
0.0
 11
1.0
 21
1.0
 12
-5.0
 22
1.0
 13
0.0
 23
0.0
 14
0.1
 24
0.1
 15
0.1
 25
0.1
 16
0.0
 26
0.0
 36
1.0
 17
0.0
 27
0.0
 37
0.0
 40
10.0
 41
1.0
 42
50.0
 43
0.0
 44
0.0
 50
0.0
 51
0.0
 71
0
 72
100
 73
1
 74
1
 75
0
 76
0
 77
0
 78
0
  0
ENDTAB
  0
TABLE
  2
LTYPE
 70
8
  0
LTYPE
  2
CONTINUOUS
 70
0
  3
Solid line
 72
65
 73
0
 40
0.0
  0
LTYPE
  2
DOT
 70
0
  3
. . . . . . .
 72
65
 73
2
 40
0.25
 49
0.0
 49
-0.25
  0
LTYPE
  2
DASHED
 70
0
  3
__ __ __ __ __
 72
65
 73
2
 40
0.8
 49
0.5
 49
-0.3
  0
LTYPE
  2
DASHDOT
 70
0
  3
__ . __ . __ .
 72
65
 73
4
 40
1.0
 49
0.5
 49
-0.25
 49
0.0
 49
-0.25
  0
LTYPE
  2
DIVIDE
 70
0
  3
____ . . ____ . . 
 72
65
 73
6
 40
1.25
 49
0.5
 49
-0.25
 49
0.0
 49
-0.25
 49
0.0
 49
-0.25
  0
LTYPE
  2
BORDER
 70
0
  3
__ __ . __ __ . 
 72
65
 73
6
 40
1.75
 49
0.5
 49
-0.25
 49
0.5
 49
-0.25
 49
0.0
 49
-0.25
  0
LTYPE
  2
HIDDEN
 70
0
  3
__ __ __ __ __
 72
65
 73
2
 40
0.4
 49
0.25
 49
-0.25
  0
LTYPE
  2
CENTER
 70
0
  3
____ _ ____ _ __
 72
65
 73
4
 40
2.0
 49
1.25
 49
-0.25
 49
0.25
 49
-0.25
  0
ENDTAB
  0
TABLE
  2
LAYER
 70
1
  0
LAYER
  2
PYDXF
 70
64
 62
7
  6
continuous
  0
ENDTAB
  0
TABLE
  2
STYLE
 70
1
  0
STYLE
  2
STANDARD
 70
0
 40
0
 41
1.0
 50
0.0
 71
0
 42
1
 3
ARIAL.TTF
 4

  0
ENDTAB
  0
TABLE
  2
VIEW
 70
1
  0
VIEW
  2
BF_TOPVIEW
 70
0
 40
120.0
 10
0.0
 20
0.0
 41
200.0
 11
0.0
 21
0.0
 31
1.0
 12
0.0
 22
0.0
 32
0.0
 42
50.0
 43
0.0
 44
0.0
 50
0.0
 71
0
  0
ENDTAB
  0
ENDSEC
  0
SECTION
  2
BLOCKS
  0
ENDSEC
  0
SECTION
  2
ENTITIES
  0
LINE
  8
0
 10
-45.094303131103516
 20
-31.290525436401367
 30
0.7466517090797424
 11
-45.094303131103516
 21
-17.490530014038086
 31
0.7466517090797424
  0
LINE
  8
0
 10
-45.094303131103516
 20
25.109468460083008
 30
0.7466517090797424
 11
-45.094303131103516
 21
38.90946578979492
 31
0.7466517090797424
  0
LINE
  8
0
 10
-115.2942886352539
 20
25.109468460083008
 30
0.7466517090797424
 11
-115.2942886352539
 21
38.90946578979492
 31
0.7466517090797424
  0
LINE
  8
0
 10
152.9056854248047
 20
25.109468460083008
 30
0.7466517090797424
 11
152.9056854248047
 21
38.90946578979492
 31
0.7466517090797424
  0
LINE
  8
0
 10
-77.69429779052734
 20
6.309467792510986
 30
0.7466517090797424
 11
-63.8942985534668
 21
6.309467792510986
 31
0.7466517090797424
  0
LINE
  8
0
 10
-96.49429321289062
 20
38.90946578979492
 30
0.7466517090797424
 11
-82.69429779052734
 21
38.90946578979492
 31
0.7466517090797424
  0
LINE
  8
0
 10
53.9056510925293
 20
38.90946578979492
 30
0.7466517090797424
 11
67.70565032958984
 21
38.90946578979492
 31
0.7466517090797424
  0
LINE
  8
0
 10
139.105712890625
 20
-17.490530014038086
 30
0.7466517090797424
 11
152.9056854248047
 21
-17.490530014038086
 31
0.7466517090797424
  0
LINE
  8
0
 10
-96.49429321289062
 20
1.3094676733016968
 30
0.7466517090797424
 11
-82.69429779052734
 21
1.3094676733016968
 31
0.7466517090797424
  0
LINE
  8
0
 10
11.305686950683594
 20
-12.490528106689453
 30
0.7466517090797424
 11
11.305686950683594
 21
1.3094676733016968
 31
0.7466517090797424
  0
LINE
  8
0
 10
55.90573501586914
 20
61.709468841552734
 30
0.7466517090797424
 11
69.70572662353516
 21
61.709468841552734
 31
0.7466517090797424
  0
LINE
  8
0
 10
16.305681228637695
 20
1.3094676733016968
 30
0.7466517090797424
 11
30.105676651000977
 21
1.3094676733016968
 31
0.7466517090797424
  0
LINE
  8
0
 10
-154.89427185058594
 20
25.109468460083008
 30
0.7466517090797424
 11
-154.89427185058594
 21
38.90946578979492
 31
0.7466517090797424
  0
LINE
  8
0
 10
-154.89427185058594
 20
25.109468460083008
 30
0.7466517090797424
 11
-141.0942840576172
 21
25.109468460083008
 31
0.7466517090797424
  0
LINE
  8
0
 10
-141.0942840576172
 20
6.309467792510986
 30
0.7466517090797424
 11
-141.0942840576172
 21
20.109468460083008
 31
0.7466517090797424
  0
LINE
  8
0
 10
-21.294309616088867
 20
6.309467792510986
 30
0.7466517090797424
 11
-7.494315147399902
 21
6.309467792510986
 31
0.7466517090797424
  0
LINE
  8
0
 10
-63.8942985534668
 20
6.309467792510986
 30
0.7466517090797424
 11
-63.8942985534668
 21
20.109468460083008
 31
0.7466517090797424
  0
LINE
  8
0
 10
18.30573272705078
 20
61.709468841552734
 30
0.7466517090797424
 11
32.10572052001953
 21
61.709468841552734
 31
0.7466517090797424
  0
LINE
  8
0
 10
-40.094303131103516
 20
-12.490528106689453
 30
0.7466517090797424
 11
-26.2943115234375
 21
-12.490528106689453
 31
0.7466517090797424
  0
LINE
  8
0
 10
-158.9320068359375
 20
-58.11214065551758
 30
0.7466517090797424
 11
-158.9320068359375
 21
66.68785858154297
 31
0.7466517090797424
  0
LINE
  8
0
 10
-158.9320068359375
 20
-58.11214065551758
 30
0.7466517090797424
 11
156.86795043945312
 21
-58.11214065551758
 31
0.7466517090797424
  0
LINE
  8
0
 10
-115.2942886352539
 20
25.109468460083008
 30
0.7466517090797424
 11
-101.49429321289062
 21
25.109468460083008
 31
0.7466517090797424
  0
LINE
  8
0
 10
-21.294309616088867
 20
-12.490528106689453
 30
0.7466517090797424
 11
-21.294309616088867
 21
1.3094676733016968
 31
0.7466517090797424
  0
LINE
  8
0
 10
-120.29428100585938
 20
-12.490528106689453
 30
0.7466517090797424
 11
-127.94428253173828
 21
-12.490528106689453
 31
0.7466517090797424
  0
LINE
  8
0
 10
-7.494315147399902
 20
-31.290525436401367
 30
0.7466517090797424
 11
-15.144311904907227
 21
-31.290525436401367
 31
0.7466517090797424
  0
LINE
  8
0
 10
-21.294309616088867
 20
-12.490528106689453
 30
0.7466517090797424
 11
-7.494315147399902
 21
-12.490528106689453
 31
0.7466517090797424
  0
LINE
  8
0
 10
-120.29428100585938
 20
-12.490528106689453
 30
0.7466517090797424
 11
-120.29428100585938
 21
1.3094676733016968
 31
0.7466517090797424
  0
LINE
  8
0
 10
-7.494315147399902
 20
-31.290525436401367
 30
0.7466517090797424
 11
-7.494315147399902
 21
-17.490530014038086
 31
0.7466517090797424
  0
LINE
  8
0
 10
-40.094303131103516
 20
25.109468460083008
 30
0.7466517090797424
 11
-40.094303131103516
 21
38.90946578979492
 31
0.7466517090797424
  0
LINE
  8
0
 10
86.50563049316406
 20
25.109468460083008
 30
0.7466517090797424
 11
86.50563049316406
 21
38.881591796875
 31
0.7466517090797424
  0
LINE
  8
0
 10
53.9056510925293
 20
-17.490530014038086
 30
0.7466517090797424
 11
53.9056510925293
 21
-31.290525436401367
 31
0.7466517090797424
  0
LINE
  8
0
 10
-26.2943115234375
 20
6.309467792510986
 30
0.7466517090797424
 11
-26.2943115234375
 21
20.109468460083008
 31
0.7466517090797424
  0
LINE
  8
0
 10
-56.894287109375
 20
61.709468841552734
 30
0.7466517090797424
 11
-43.09428024291992
 21
61.709468841552734
 31
0.7466517090797424
  0
LINE
  8
0
 10
-7.494315147399902
 20
25.109468460083008
 30
0.7466517090797424
 11
-7.494315147399902
 21
38.90946578979492
 31
0.7466517090797424
  0
LINE
  8
0
 10
86.50563049316406
 20
-36.290531158447266
 30
0.7466517090797424
 11
86.50563049316406
 21
-43.94053268432617
 31
0.7466517090797424
  0
LINE
  8
0
 10
109.3056411743164
 20
-54.090538024902344
 30
0.7466517090797424
 11
109.3056411743164
 21
-40.29053497314453
 31
0.7466517090797424
  0
LINE
  8
0
 10
-113.2942886352539
 20
47.90946578979492
 30
0.7466517090797424
 11
-113.2942886352539
 21
61.709468841552734
 31
0.7466517090797424
  0
LINE
  8
0
 10
-113.2942886352539
 20
47.90946578979492
 30
0.7466517090797424
 11
-99.49427795410156
 21
47.90946578979492
 31
0.7466517090797424
  0
LINE
  8
0
 10
133.1056365966797
 20
-54.090538024902344
 30
0.7466517090797424
 11
133.1056365966797
 21
-40.29053497314453
 31
0.7466517090797424
  0
LINE
  8
0
 10
133.1056365966797
 20
-54.090538024902344
 30
0.7466517090797424
 11
146.90562438964844
 21
-54.090538024902344
 31
0.7466517090797424
  0
LINE
  8
0
 10
67.70565032958984
 20
-50.09053421020508
 30
0.7466517090797424
 11
67.70565032958984
 21
-36.290531158447266
 31
0.7466517090797424
  0
LINE
  8
0
 10
72.70565032958984
 20
25.109468460083008
 30
0.7466517090797424
 11
86.50563049316406
 21
25.109468460083008
 31
0.7466517090797424
  0
LINE
  8
0
 10
79.70565032958984
 20
-31.290525436401367
 30
0.7466517090797424
 11
79.70565032958984
 21
-17.490530014038086
 31
0.7466517090797424
  0
LINE
  8
0
 10
79.70565032958984
 20
-31.290525436401367
 30
0.7466517090797424
 11
93.5056381225586
 21
-31.290525436401367
 31
0.7466517090797424
  0
LINE
  8
0
 10
-115.2942886352539
 20
6.309467792510986
 30
0.7466517090797424
 11
-115.2942886352539
 21
20.109468460083008
 31
0.7466517090797424
  0
LINE
  8
0
 10
-115.2942886352539
 20
6.309467792510986
 30
0.7466517090797424
 11
-101.49429321289062
 21
6.309467792510986
 31
0.7466517090797424
  0
LINE
  8
0
 10
-82.69429779052734
 20
25.109468460083008
 30
0.7466517090797424
 11
-82.69429779052734
 21
38.90946578979492
 31
0.7466517090797424
  0
LINE
  8
0
 10
16.305681228637695
 20
-31.290525436401367
 30
0.7466517090797424
 11
16.305681228637695
 21
-17.490530014038086
 31
0.7466517090797424
  0
LINE
  8
0
 10
16.305681228637695
 20
-31.290525436401367
 30
0.7466517090797424
 11
30.105676651000977
 21
-31.290525436401367
 31
0.7466517090797424
  0
LINE
  8
0
 10
-82.69429779052734
 20
-12.490528106689453
 30
0.7466517090797424
 11
-82.69429779052734
 21
1.3094676733016968
 31
0.7466517090797424
  0
LINE
  8
0
 10
112.3056411743164
 20
6.309467792510986
 30
0.7466517090797424
 11
112.3056411743164
 21
20.109468460083008
 31
0.7466517090797424
  0
LINE
  8
0
 10
55.90573501586914
 20
47.90946578979492
 30
0.7466517090797424
 11
55.90573501586914
 21
61.709468841552734
 31
0.7466517090797424
  0
LINE
  8
0
 10
55.90573501586914
 20
47.90946578979492
 30
0.7466517090797424
 11
69.70572662353516
 21
47.90946578979492
 31
0.7466517090797424
  0
LINE
  8
0
 10
-77.69429779052734
 20
1.3094676733016968
 30
0.7466517090797424
 11
-63.8942985534668
 21
1.3094676733016968
 31
0.7466517090797424
  0
LINE
  8
0
 10
30.105676651000977
 20
-12.490528106689453
 30
0.7466517090797424
 11
30.105676651000977
 21
1.3094676733016968
 31
0.7466517090797424
  0
LINE
  8
0
 10
133.1056365966797
 20
-40.29053497314453
 30
0.7466517090797424
 11
146.90562438964844
 21
-40.29053497314453
 31
0.7466517090797424
  0
LINE
  8
0
 10
88.50572967529297
 20
47.90946578979492
 30
0.7466517090797424
 11
88.50572967529297
 21
61.709468841552734
 31
0.7466517090797424
  0
LINE
  8
0
 10
99.4056396484375
 20
-12.490528106689453
 30
0.7466517090797424
 11
85.60564422607422
 21
-12.490528106689453
 31
0.7466517090797424
  0
LINE
  8
0
 10
-58.89430618286133
 20
-12.490528106689453
 30
0.7466517090797424
 11
-58.89430618286133
 21
1.3094676733016968
 31
0.7466517090797424
  0
LINE
  8
0
 10
35.10566711425781
 20
1.3094676733016968
 30
0.7466517090797424
 11
48.90565872192383
 21
1.3094676733016968
 31
0.7466517090797424
  0
LINE
  8
0
 10
-58.89430618286133
 20
-12.490528106689453
 30
0.7466517090797424
 11
-45.094303131103516
 21
-12.490528106689453
 31
0.7466517090797424
  0
LINE
  8
0
 10
-21.294309616088867
 20
20.109468460083008
 30
0.7466517090797424
 11
-7.494315147399902
 21
20.109468460083008
 31
0.7466517090797424
  0
LINE
  8
0
 10
-45.094303131103516
 20
-12.490528106689453
 30
0.7466517090797424
 11
-45.094303131103516
 21
1.3094676733016968
 31
0.7466517090797424
  0
LINE
  8
0
 10
18.30573272705078
 20
47.90946578979492
 30
0.7466517090797424
 11
18.30573272705078
 21
61.709468841552734
 31
0.7466517090797424
  0
LINE
  8
0
 10
-132.0942840576172
 20
47.90946578979492
 30
0.7466517090797424
 11
-132.0942840576172
 21
61.709468841552734
 31
0.7466517090797424
  0
LINE
  8
0
 10
-132.0942840576172
 20
47.90946578979492
 30
0.7466517090797424
 11
-118.29428100585938
 21
47.90946578979492
 31
0.7466517090797424
  0
LINE
  8
0
 10
106.22020721435547
 20
-10.690006256103516
 30
0.7466517090797424
 11
106.22020721435547
 21
-12.4905366897583
 31
0.7466517090797424
  0
LINE
  8
0
 10
146.90562438964844
 20
-54.090538024902344
 30
0.7466517090797424
 11
146.90562438964844
 21
-40.29053497314453
 31
0.7466517090797424
  0
LINE
  8
0
 10
-40.094303131103516
 20
25.109468460083008
 30
0.7466517090797424
 11
-26.2943115234375
 21
25.109468460083008
 31
0.7466517090797424
  0
LINE
  8
0
 10
-158.9320068359375
 20
66.68785858154297
 30
0.7466517090797424
 11
156.86795043945312
 21
66.68785858154297
 31
0.7466517090797424
  0
LINE
  8
0
 10
53.9056510925293
 20
-17.490530014038086
 30
0.7466517090797424
 11
67.70565032958984
 21
-17.490530014038086
 31
0.7466517090797424
  0
LINE
  8
0
 10
-141.99427795410156
 20
-17.490530014038086
 30
0.7466517090797424
 11
-134.3442840576172
 21
-17.490530014038086
 31
0.7466517090797424
  0
LINE
  8
0
 10
48.90565872192383
 20
-50.09052658081055
 30
0.7466517090797424
 11
48.90565872192383
 21
-36.290523529052734
 31
0.7466517090797424
  0
LINE
  8
0
 10
-30.694313049316406
 20
-36.290523529052734
 30
0.7466517090797424
 11
-30.694313049316406
 21
-40.693580627441406
 31
0.7466517090797424
  0
LINE
  8
0
 10
-30.694313049316406
 20
-50.09052658081055
 30
0.7466517090797424
 11
-16.894323348999023
 21
-50.09052658081055
 31
0.7466517090797424
  0
LINE
  8
0
 10
72.70565032958984
 20
38.90946578979492
 30
0.7466517090797424
 11
86.50563049316406
 21
38.90946578979492
 31
0.7466517090797424
  0
LINE
  8
0
 10
-77.69429779052734
 20
38.90946578979492
 30
0.7466517090797424
 11
-63.8942985534668
 21
38.90946578979492
 31
0.7466517090797424
  0
LINE
  8
0
 10
-56.894287109375
 20
47.90946578979492
 30
0.7466517090797424
 11
-56.894287109375
 21
61.709468841552734
 31
0.7466517090797424
  0
LINE
  8
0
 10
35.10566711425781
 20
-12.490528106689453
 30
0.7466517090797424
 11
35.10566711425781
 21
1.3094676733016968
 31
0.7466517090797424
  0
LINE
  8
0
 10
35.10566711425781
 20
-12.490528106689453
 30
0.7466517090797424
 11
48.90565872192383
 21
-12.490528106689453
 31
0.7466517090797424
  0
LINE
  8
0
 10
-154.89427185058594
 20
20.109468460083008
 30
0.7466517090797424
 11
-141.0942840576172
 21
20.109468460083008
 31
0.7466517090797424
  0
LINE
  8
0
 10
116.30571746826172
 20
47.90946578979492
 30
0.7466517090797424
 11
116.30571746826172
 21
61.709468841552734
 31
0.7466517090797424
  0
LINE
  8
0
 10
116.30571746826172
 20
47.90946578979492
 30
0.7466517090797424
 11
130.10569763183594
 21
47.90946578979492
 31
0.7466517090797424
  0
LINE
  8
0
 10
-132.0942840576172
 20
61.709468841552734
 30
0.7466517090797424
 11
-118.29428100585938
 21
61.709468841552734
 31
0.7466517090797424
  0
LINE
  8
0
 10
128.10562133789062
 20
-54.090538024902344
 30
0.7466517090797424
 11
128.10562133789062
 21
-40.29053497314453
 31
0.7466517090797424
  0
LINE
  8
0
 10
18.30573272705078
 20
47.90946578979492
 30
0.7466517090797424
 11
32.10572052001953
 21
47.90946578979492
 31
0.7466517090797424
  0
LINE
  8
0
 10
114.3056411743164
 20
-21.490528106689453
 30
0.7466517090797424
 11
128.10562133789062
 21
-21.490528106689453
 31
0.7466517090797424
  0
LINE
  8
0
 10
139.105712890625
 20
-12.490528106689453
 30
0.7466517090797424
 11
139.105712890625
 21
1.3094676733016968
 31
0.7466517090797424
  0
LINE
  8
0
 10
-96.49429321289062
 20
-50.09052658081055
 30
0.7466517090797424
 11
-96.49429321289062
 21
-36.290523529052734
 31
0.7466517090797424
  0
LINE
  8
0
 10
-96.49429321289062
 20
-50.09052658081055
 30
0.7466517090797424
 11
-82.69429779052734
 21
-50.09052658081055
 31
0.7466517090797424
  0
LINE
  8
0
 10
139.105712890625
 20
25.109468460083008
 30
0.7466517090797424
 11
152.9056854248047
 21
25.109468460083008
 31
0.7466517090797424
  0
LINE
  8
0
 10
139.105712890625
 20
6.309467792510986
 30
0.7466517090797424
 11
139.105712890625
 21
20.109468460083008
 31
0.7466517090797424
  0
LINE
  8
0
 10
139.105712890625
 20
6.309467792510986
 30
0.7466517090797424
 11
152.9056854248047
 21
6.309467792510986
 31
0.7466517090797424
  0
LINE
  8
0
 10
-30.694313049316406
 20
-36.290523529052734
 30
0.7466517090797424
 11
-16.894323348999023
 21
-36.290523529052734
 31
0.7466517090797424
  0
LINE
  8
0
 10
-115.2942886352539
 20
-12.490528106689453
 30
0.7466517090797424
 11
-115.2942886352539
 21
1.3094676733016968
 31
0.7466517090797424
  0
LINE
  8
0
 10
-115.2942886352539
 20
-12.490528106689453
 30
0.7466517090797424
 11
-101.49429321289062
 21
-12.490528106689453
 31
0.7466517090797424
  0
LINE
  8
0
 10
67.70565032958984
 20
25.109468460083008
 30
0.7466517090797424
 11
67.70565032958984
 21
38.90946578979492
 31
0.7466517090797424
  0
LINE
  8
0
 10
152.9056854248047
 20
-31.2905330657959
 30
0.7466517090797424
 11
152.9056854248047
 21
-17.490530014038086
 31
0.7466517090797424
  0
LINE
  8
0
 10
-154.89427185058594
 20
-50.09052658081055
 30
0.7466517090797424
 11
-154.89427185058594
 21
-36.290523529052734
 31
0.7466517090797424
  0
LINE
  8
0
 10
-154.89427185058594
 20
-50.09052658081055
 30
0.7466517090797424
 11
-141.0942840576172
 21
-50.09052658081055
 31
0.7466517090797424
  0
LINE
  8
0
 10
72.70565032958984
 20
20.109468460083008
 30
0.7466517090797424
 11
86.50563049316406
 21
20.109468460083008
 31
0.7466517090797424
  0
LINE
  8
0
 10
-63.8942985534668
 20
-12.490528106689453
 30
0.7466517090797424
 11
-63.8942985534668
 21
1.3094676733016968
 31
0.7466517090797424
  0
LINE
  8
0
 10
-141.0942840576172
 20
25.109468460083008
 30
0.7466517090797424
 11
-141.0942840576172
 21
38.90946578979492
 31
0.7466517090797424
  0
LINE
  8
0
 10
-7.494315147399902
 20
6.309467792510986
 30
0.7466517090797424
 11
-7.494315147399902
 21
20.109468460083008
 31
0.7466517090797424
  0
LINE
  8
0
 10
97.50572204589844
 20
61.709468841552734
 30
0.7466517090797424
 11
111.30571746826172
 21
61.709468841552734
 31
0.7466517090797424
  0
LINE
  8
0
 10
-77.69429779052734
 20
20.109468460083008
 30
0.7466517090797424
 11
-63.8942985534668
 21
20.109468460083008
 31
0.7466517090797424
  0
LINE
  8
0
 10
-134.0942840576172
 20
25.109468460083008
 30
0.7466517090797424
 11
-134.0942840576172
 21
38.90946578979492
 31
0.7466517090797424
  0
LINE
  8
0
 10
-2.494307518005371
 20
38.90946578979492
 30
0.7466517090797424
 11
11.305686950683594
 21
38.90946578979492
 31
0.7466517090797424
  0
LINE
  8
0
 10
-94.49427032470703
 20
47.90946578979492
 30
0.7466517090797424
 11
-80.69427490234375
 21
47.90946578979492
 31
0.7466517090797424
  0
LINE
  8
0
 10
74.70574188232422
 20
47.90946578979492
 30
0.7466517090797424
 11
74.70574188232422
 21
61.709468841552734
 31
0.7466517090797424
  0
LINE
  8
0
 10
156.86795043945312
 20
-58.11214065551758
 30
0.7466517090797424
 11
156.86795043945312
 21
66.68785858154297
 31
0.7466517090797424
  0
LINE
  8
0
 10
-40.094303131103516
 20
-17.490530014038086
 30
0.7466517090797424
 11
-26.2943115234375
 21
-17.490530014038086
 31
0.7466517090797424
  0
LINE
  8
0
 10
35.10566711425781
 20
6.309467792510986
 30
0.7466517090797424
 11
35.10566711425781
 21
20.109468460083008
 31
0.7466517090797424
  0
LINE
  8
0
 10
35.10566711425781
 20
6.309467792510986
 30
0.7466517090797424
 11
48.90565872192383
 21
6.309467792510986
 31
0.7466517090797424
  0
LINE
  8
0
 10
-2.494307518005371
 20
-17.490530014038086
 30
0.7466517090797424
 11
11.305686950683594
 21
-17.490530014038086
 31
0.7466517090797424
  0
LINE
  8
0
 10
72.70565032958984
 20
6.309467792510986
 30
0.7466517090797424
 11
72.70565032958984
 21
20.109468460083008
 31
0.7466517090797424
  0
LINE
  8
0
 10
-21.294309616088867
 20
6.309467792510986
 30
0.7466517090797424
 11
-21.294309616088867
 21
20.109468460083008
 31
0.7466517090797424
  0
LINE
  8
0
 10
72.70565032958984
 20
6.309467792510986
 30
0.7466517090797424
 11
86.50563049316406
 21
6.309467792510986
 31
0.7466517090797424
  0
LINE
  8
0
 10
-0.4942769408226013
 20
61.709468841552734
 30
0.7466517090797424
 11
13.305718421936035
 21
61.709468841552734
 31
0.7466517090797424
  0
LINE
  8
0
 10
-2.494307518005371
 20
25.109468460083008
 30
0.7466517090797424
 11
-2.494307518005371
 21
38.90946578979492
 31
0.7466517090797424
  0
LINE
  8
0
 10
-2.494307518005371
 20
25.109468460083008
 30
0.7466517090797424
 11
11.305686950683594
 21
25.109468460083008
 31
0.7466517090797424
  0
LINE
  8
0
 10
-134.0942840576172
 20
38.90946578979492
 30
0.7466517090797424
 11
-120.29428100585938
 21
38.90946578979492
 31
0.7466517090797424
  0
LINE
  8
0
 10
-99.49427795410156
 20
47.90946578979492
 30
0.7466517090797424
 11
-99.49427795410156
 21
61.709468841552734
 31
0.7466517090797424
  0
LINE
  8
0
 10
79.70565032958984
 20
-17.490530014038086
 30
0.7466517090797424
 11
93.5056381225586
 21
-17.490530014038086
 31
0.7466517090797424
  0
LINE
  8
0
 10
-63.8942985534668
 20
-31.290525436401367
 30
0.7466517090797424
 11
-63.8942985534668
 21
-17.490530014038086
 31
0.7466517090797424
  0
LINE
  8
0
 10
99.4056396484375
 20
-12.490528106689453
 30
0.7466517090797424
 11
99.4056396484375
 21
-8.078956604003906
 31
0.7466517090797424
  0
LINE
  8
0
 10
-96.49429321289062
 20
-36.290523529052734
 30
0.7466517090797424
 11
-82.69429779052734
 21
-36.290523529052734
 31
0.7466517090797424
  0
LINE
  8
0
 10
139.105712890625
 20
20.109468460083008
 30
0.7466517090797424
 11
152.9056854248047
 21
20.109468460083008
 31
0.7466517090797424
  0
LINE
  8
0
 10
-115.2942886352539
 20
1.3094676733016968
 30
0.7466517090797424
 11
-101.49429321289062
 21
1.3094676733016968
 31
0.7466517090797424
  0
LINE
  8
0
 10
-96.49429321289062
 20
6.309467792510986
 30
0.7466517090797424
 11
-96.49429321289062
 21
20.109468460083008
 31
0.7466517090797424
  0
LINE
  8
0
 10
-96.49429321289062
 20
6.309467792510986
 30
0.7466517090797424
 11
-82.69429779052734
 21
6.309467792510986
 31
0.7466517090797424
  0
LINE
  8
0
 10
16.305681228637695
 20
-17.490530014038086
 30
0.7466517090797424
 11
30.105676651000977
 21
-17.490530014038086
 31
0.7466517090797424
  0
LINE
  8
0
 10
139.105712890625
 20
-12.490528106689453
 30
0.7466517090797424
 11
152.9056854248047
 21
-12.490528106689453
 31
0.7466517090797424
  0
LINE
  8
0
 10
-56.894287109375
 20
47.90946578979492
 30
0.7466517090797424
 11
-43.09428024291992
 21
47.90946578979492
 31
0.7466517090797424
  0
LINE
  8
0
 10
86.50563049316406
 20
6.309467792510986
 30
0.7466517090797424
 11
86.50563049316406
 21
20.109468460083008
 31
0.7466517090797424
  0
LINE
  8
0
 10
69.70572662353516
 20
47.90946578979492
 30
0.7466517090797424
 11
69.70572662353516
 21
61.709468841552734
 31
0.7466517090797424
  0
LINE
  8
0
 10
48.90565872192383
 20
-31.290525436401367
 30
0.7466517090797424
 11
48.90565872192383
 21
-17.490530014038086
 31
0.7466517090797424
  0
LINE
  8
0
 10
-154.89427185058594
 20
38.90946578979492
 30
0.7466517090797424
 11
-141.0942840576172
 21
38.90946578979492
 31
0.7466517090797424
  0
LINE
  8
0
 10
72.70565032958984
 20
-50.09053421020508
 30
0.7466517090797424
 11
86.50563049316406
 21
-50.09053421020508
 31
0.7466517090797424
  0
LINE
  8
0
 10
97.50572204589844
 20
47.90946578979492
 30
0.7466517090797424
 11
97.50572204589844
 21
61.709468841552734
 31
0.7466517090797424
  0
LINE
  8
0
 10
97.50572204589844
 20
47.90946578979492
 30
0.7466517090797424
 11
111.30571746826172
 21
47.90946578979492
 31
0.7466517090797424
  0
LINE
  8
0
 10
53.9056510925293
 20
1.3094676733016968
 30
0.7466517090797424
 11
67.70565032958984
 21
1.3094676733016968
 31
0.7466517090797424
  0
LINE
  8
0
 10
32.10572052001953
 20
47.90946578979492
 30
0.7466517090797424
 11
32.10572052001953
 21
61.709468841552734
 31
0.7466517090797424
  0
LINE
  8
0
 10
-115.2942886352539
 20
-31.290525436401367
 30
0.7466517090797424
 11
-115.2942886352539
 21
-17.490530014038086
 31
0.7466517090797424
  0
LINE
  8
0
 10
-115.2942886352539
 20
-31.290525436401367
 30
0.7466517090797424
 11
-101.49429321289062
 21
-31.290525436401367
 31
0.7466517090797424
  0
LINE
  8
0
 10
-2.494307518005371
 20
20.109468460083008
 30
0.7466517090797424
 11
11.305686950683594
 21
20.109468460083008
 31
0.7466517090797424
  0
LINE
  8
0
 10
16.305681228637695
 20
25.109468460083008
 30
0.7466517090797424
 11
16.305681228637695
 21
38.90946578979492
 31
0.7466517090797424
  0
LINE
  8
0
 10
16.305681228637695
 20
25.109468460083008
 30
0.7466517090797424
 11
30.105676651000977
 21
25.109468460083008
 31
0.7466517090797424
  0
LINE
  8
0
 10
93.5056381225586
 20
-31.290525436401367
 30
0.7466517090797424
 11
93.5056381225586
 21
-17.490530014038086
 31
0.7466517090797424
  0
LINE
  8
0
 10
-115.2942886352539
 20
20.109468460083008
 30
0.7466517090797424
 11
-101.49429321289062
 21
20.109468460083008
 31
0.7466517090797424
  0
LINE
  8
0
 10
-61.894283294677734
 20
47.90946578979492
 30
0.7466517090797424
 11
-61.894283294677734
 21
61.709468841552734
 31
0.7466517090797424
  0
LINE
  8
0
 10
-24.294281005859375
 20
47.90946578979492
 30
0.7466517090797424
 11
-24.294281005859375
 21
61.709468841552734
 31
0.7466517090797424
  0
LINE
  8
0
 10
-7.494315147399902
 20
-12.490528106689453
 30
0.7466517090797424
 11
-7.494315147399902
 21
1.3094676733016968
 31
0.7466517090797424
  0
LINE
  8
0
 10
53.9056510925293
 20
6.309467792510986
 30
0.7466517090797424
 11
53.9056510925293
 21
20.109468460083008
 31
0.7466517090797424
  0
LINE
  8
0
 10
-94.49427032470703
 20
47.90946578979492
 30
0.7466517090797424
 11
-94.49427032470703
 21
61.709468841552734
 31
0.7466517090797424
  0
LINE
  8
0
 10
-2.494307518005371
 20
-31.290525436401367
 30
0.7466517090797424
 11
11.305686950683594
 21
-31.290525436401367
 31
0.7466517090797424
  0
LINE
  8
0
 10
53.9056510925293
 20
6.309467792510986
 30
0.7466517090797424
 11
67.70565032958984
 21
6.309467792510986
 31
0.7466517090797424
  0
LINE
  8
0
 10
-2.494307518005371
 20
-31.290525436401367
 30
0.7466517090797424
 11
-2.494307518005371
 21
-17.490530014038086
 31
0.7466517090797424
  0
LINE
  8
0
 10
30.105676651000977
 20
-31.290525436401367
 30
0.7466517090797424
 11
30.105676651000977
 21
-17.490530014038086
 31
0.7466517090797424
  0
LINE
  8
0
 10
-40.094303131103516
 20
38.90946578979492
 30
0.7466517090797424
 11
-26.2943115234375
 21
38.90946578979492
 31
0.7466517090797424
  0
LINE
  8
0
 10
-63.8942985534668
 20
25.109468460083008
 30
0.7466517090797424
 11
-63.8942985534668
 21
38.90946578979492
 31
0.7466517090797424
  0
LINE
  8
0
 10
-43.09428024291992
 20
47.90946578979492
 30
0.7466517090797424
 11
-43.09428024291992
 21
61.709468841552734
 31
0.7466517090797424
  0
LINE
  8
0
 10
53.9056510925293
 20
-50.09053421020508
 30
0.7466517090797424
 11
53.9056510925293
 21
-36.290531158447266
 31
0.7466517090797424
  0
LINE
  8
0
 10
53.9056510925293
 20
-50.09053421020508
 30
0.7466517090797424
 11
67.70565032958984
 21
-50.09053421020508
 31
0.7466517090797424
  0
LINE
  8
0
 10
48.90565872192383
 20
-12.490528106689453
 30
0.7466517090797424
 11
48.90565872192383
 21
1.3094676733016968
 31
0.7466517090797424
  0
LINE
  8
0
 10
53.9056510925293
 20
-12.490528106689453
 30
0.7466517090797424
 11
53.9056510925293
 21
1.3094676733016968
 31
0.7466517090797424
  0
LINE
  8
0
 10
114.3056411743164
 20
-40.29053497314453
 30
0.7466517090797424
 11
128.10562133789062
 21
-40.29053497314453
 31
0.7466517090797424
  0
LINE
  8
0
 10
-0.4942769408226013
 20
47.90946578979492
 30
0.7466517090797424
 11
13.305718421936035
 21
47.90946578979492
 31
0.7466517090797424
  0
LINE
  8
0
 10
53.9056510925293
 20
-12.490528106689453
 30
0.7466517090797424
 11
67.70565032958984
 21
-12.490528106689453
 31
0.7466517090797424
  0
LINE
  8
0
 10
130.10569763183594
 20
47.90946578979492
 30
0.7466517090797424
 11
130.10569763183594
 21
61.709468841552734
 31
0.7466517090797424
  0
LINE
  8
0
 10
-2.494307518005371
 20
6.309467792510986
 30
0.7466517090797424
 11
-2.494307518005371
 21
20.109468460083008
 31
0.7466517090797424
  0
LINE
  8
0
 10
-113.2942886352539
 20
61.709468841552734
 30
0.7466517090797424
 11
-99.49427795410156
 21
61.709468841552734
 31
0.7466517090797424
  0
LINE
  8
0
 10
-2.494307518005371
 20
6.309467792510986
 30
0.7466517090797424
 11
11.305686950683594
 21
6.309467792510986
 31
0.7466517090797424
  0
LINE
  8
0
 10
-101.49429321289062
 20
-50.09052658081055
 30
0.7466517090797424
 11
-101.49429321289062
 21
-36.290523529052734
 31
0.7466517090797424
  0
LINE
  8
0
 10
128.10562133789062
 20
-35.290531158447266
 30
0.7466517090797424
 11
128.10562133789062
 21
-21.490528106689453
 31
0.7466517090797424
  0
LINE
  8
0
 10
48.90565872192383
 20
25.109468460083008
 30
0.7466517090797424
 11
48.90565872192383
 21
38.90946578979492
 31
0.7466517090797424
  0
LINE
  8
0
 10
-128.1942901611328
 20
-31.290525436401367
 30
0.7466517090797424
 11
-128.1942901611328
 21
-17.490530014038086
 31
0.7466517090797424
  0
LINE
  8
0
 10
-58.89430618286133
 20
6.309467792510986
 30
0.7466517090797424
 11
-58.89430618286133
 21
20.109468460083008
 31
0.7466517090797424
  0
LINE
  8
0
 10
-58.89430618286133
 20
6.309467792510986
 30
0.7466517090797424
 11
-45.094303131103516
 21
6.309467792510986
 31
0.7466517090797424
  0
LINE
  8
0
 10
35.10566711425781
 20
20.109468460083008
 30
0.7466517090797424
 11
48.90565872192383
 21
20.109468460083008
 31
0.7466517090797424
  0
LINE
  8
0
 10
-101.49429321289062
 20
-12.490528106689453
 30
0.7466517090797424
 11
-101.49429321289062
 21
1.3094676733016968
 31
0.7466517090797424
  0
LINE
  8
0
 10
30.790050506591797
 20
-42.7011833190918
 30
0.7466517090797424
 11
30.790050506591797
 21
-40.69157409667969
 31
0.7466517090797424
  0
LINE
  8
0
 10
-128.1942901611328
 20
-17.490530014038086
 30
0.7466517090797424
 11
-134.3442840576172
 21
-17.490530014038086
 31
0.7466517090797424
  0
LINE
  8
0
 10
53.9056510925293
 20
20.109468460083008
 30
0.7466517090797424
 11
67.70565032958984
 21
20.109468460083008
 31
0.7466517090797424
  0
LINE
  8
0
 10
-2.494307518005371
 20
-12.490528106689453
 30
0.7466517090797424
 11
-2.494307518005371
 21
1.3094676733016968
 31
0.7466517090797424
  0
LINE
  8
0
 10
-2.494307518005371
 20
-12.490528106689453
 30
0.7466517090797424
 11
11.305686950683594
 21
-12.490528106689453
 31
0.7466517090797424
  0
LINE
  8
0
 10
98.50563049316406
 20
38.90946578979492
 30
0.7466517090797424
 11
112.3056411743164
 21
38.90946578979492
 31
0.7466517090797424
  0
LINE
  8
0
 10
-154.89427185058594
 20
-36.290523529052734
 30
0.7466517090797424
 11
-141.0942840576172
 21
-36.290523529052734
 31
0.7466517090797424
  0
LINE
  8
0
 10
152.9056854248047
 20
61.709468841552734
 30
0.7466517090797424
 11
139.105712890625
 21
61.709468841552734
 31
0.7466517090797424
  0
LINE
  8
0
 10
-77.69429779052734
 20
6.309467792510986
 30
0.7466517090797424
 11
-77.69429779052734
 21
20.109468460083008
 31
0.7466517090797424
  0
LINE
  8
0
 10
-154.89427185058594
 20
61.709468841552734
 30
0.7466517090797424
 11
-141.0942840576172
 21
61.709468841552734
 31
0.7466517090797424
  0
LINE
  8
0
 10
72.70565032958984
 20
-36.290531158447266
 30
0.7466517090797424
 11
86.50563049316406
 21
-36.290531158447266
 31
0.7466517090797424
  0
LINE
  8
0
 10
-154.89427185058594
 20
-12.490528106689453
 30
0.7466517090797424
 11
-154.89427185058594
 21
1.3094676733016968
 31
0.7466517090797424
  0
LINE
  8
0
 10
-154.89427185058594
 20
-12.490528106689453
 30
0.7466517090797424
 11
-141.0942840576172
 21
-12.490528106689453
 31
0.7466517090797424
  0
LINE
  8
0
 10
-58.89430618286133
 20
1.3094676733016968
 30
0.7466517090797424
 11
-45.094303131103516
 21
1.3094676733016968
 31
0.7466517090797424
  0
LINE
  8
0
 10
-96.49429321289062
 20
-31.290525436401367
 30
0.7466517090797424
 11
-96.49429321289062
 21
-17.490530014038086
 31
0.7466517090797424
  0
LINE
  8
0
 10
-80.69427490234375
 20
47.90946578979492
 30
0.7466517090797424
 11
-80.69427490234375
 21
61.709468841552734
 31
0.7466517090797424
  0
LINE
  8
0
 10
-96.49429321289062
 20
-31.290525436401367
 30
0.7466517090797424
 11
-82.69429779052734
 21
-31.290525436401367
 31
0.7466517090797424
  0
LINE
  8
0
 10
30.105676651000977
 20
25.109468460083008
 30
0.7466517090797424
 11
30.105676651000977
 21
38.90946578979492
 31
0.7466517090797424
  0
LINE
  8
0
 10
72.70565032958984
 20
-50.09053421020508
 30
0.7466517090797424
 11
72.70565032958984
 21
-36.290531158447266
 31
0.7466517090797424
  0
LINE
  8
0
 10
30.105676651000977
 20
6.309467792510986
 30
0.7466517090797424
 11
30.105676651000977
 21
20.109468460083008
 31
0.7466517090797424
  0
LINE
  8
0
 10
98.50563049316406
 20
25.109468460083008
 30
0.7466517090797424
 11
98.50563049316406
 21
38.90946578979492
 31
0.7466517090797424
  0
LINE
  8
0
 10
-115.2942886352539
 20
38.90946578979492
 30
0.7466517090797424
 11
-101.49429321289062
 21
38.90946578979492
 31
0.7466517090797424
  0
LINE
  8
0
 10
-101.49429321289062
 20
6.309467792510986
 30
0.7466517090797424
 11
-101.49429321289062
 21
20.109468460083008
 31
0.7466517090797424
  0
LINE
  8
0
 10
112.3056411743164
 20
25.109468460083008
 30
0.7466517090797424
 11
112.3056411743164
 21
38.90946578979492
 31
0.7466517090797424
  0
LINE
  8
0
 10
53.9056510925293
 20
-36.290531158447266
 30
0.7466517090797424
 11
67.70565032958984
 21
-36.290531158447266
 31
0.7466517090797424
  0
LINE
  8
0
 10
74.70574188232422
 20
47.90946578979492
 30
0.7466517090797424
 11
88.50572967529297
 21
47.90946578979492
 31
0.7466517090797424
  0
LINE
  8
0
 10
-19.294279098510742
 20
61.709468841552734
 30
0.7466517090797424
 11
-5.494277000427246
 21
61.709468841552734
 31
0.7466517090797424
  0
LINE
  8
0
 10
95.5056381225586
 20
-46.4405403137207
 30
0.7466517090797424
 11
95.5056381225586
 21
-54.090538024902344
 31
0.7466517090797424
  0
LINE
  8
0
 10
-154.89427185058594
 20
1.3094676733016968
 30
0.7466517090797424
 11
-141.0942840576172
 21
1.3094676733016968
 31
0.7466517090797424
  0
LINE
  8
0
 10
11.305686950683594
 20
25.109468460083008
 30
0.7466517090797424
 11
11.305686950683594
 21
38.90946578979492
 31
0.7466517090797424
  0
LINE
  8
0
 10
-75.69428253173828
 20
47.90946578979492
 30
0.7466517090797424
 11
-75.69428253173828
 21
61.709468841552734
 31
0.7466517090797424
  0
LINE
  8
0
 10
-75.69428253173828
 20
47.90946578979492
 30
0.7466517090797424
 11
-61.894283294677734
 21
47.90946578979492
 31
0.7466517090797424
  0
LINE
  8
0
 10
16.305681228637695
 20
38.90946578979492
 30
0.7466517090797424
 11
30.105676651000977
 21
38.90946578979492
 31
0.7466517090797424
  0
LINE
  8
0
 10
16.305681228637695
 20
6.309467792510986
 30
0.7466517090797424
 11
16.305681228637695
 21
20.109468460083008
 31
0.7466517090797424
  0
LINE
  8
0
 10
16.305681228637695
 20
6.309467792510986
 30
0.7466517090797424
 11
30.105676651000977
 21
6.309467792510986
 31
0.7466517090797424
  0
LINE
  8
0
 10
35.10566711425781
 20
25.109468460083008
 30
0.7466517090797424
 11
35.10566711425781
 21
38.90946578979492
 31
0.7466517090797424
  0
LINE
  8
0
 10
35.10566711425781
 20
25.109468460083008
 30
0.7466517090797424
 11
48.90565872192383
 21
25.109468460083008
 31
0.7466517090797424
  0
LINE
  8
0
 10
139.105712890625
 20
25.109468460083008
 30
0.7466517090797424
 11
139.105712890625
 21
38.90946578979492
 31
0.7466517090797424
  0
LINE
  8
0
 10
152.9056854248047
 20
6.309467792510986
 30
0.7466517090797424
 11
152.9056854248047
 21
20.109468460083008
 31
0.7466517090797424
  0
LINE
  8
0
 10
-96.49429321289062
 20
20.109468460083008
 30
0.7466517090797424
 11
-82.69429779052734
 21
20.109468460083008
 31
0.7466517090797424
  0
LINE
  8
0
 10
86.50563049316406
 20
38.881591796875
 30
0.7466517090797424
 11
86.50563049316406
 21
38.90946578979492
 31
0.7466517090797424
  0
LINE
  8
0
 10
139.105712890625
 20
1.3094676733016968
 30
0.7466517090797424
 11
152.9056854248047
 21
1.3094676733016968
 31
0.7466517090797424
  0
LINE
  8
0
 10
98.50563049316406
 20
25.109468460083008
 30
0.7466517090797424
 11
112.3056411743164
 21
25.109468460083008
 31
0.7466517090797424
  0
LINE
  8
0
 10
-141.0942840576172
 20
-50.09052658081055
 30
0.7466517090797424
 11
-141.0942840576172
 21
-36.290523529052734
 31
0.7466517090797424
  0
LINE
  8
0
 10
152.9056854248047
 20
47.90946578979492
 30
0.7466517090797424
 11
139.105712890625
 21
47.90946578979492
 31
0.7466517090797424
  0
LINE
  8
0
 10
152.9056854248047
 20
47.90946578979492
 30
0.7466517090797424
 11
152.9056854248047
 21
61.709468841552734
 31
0.7466517090797424
  0
LINE
  8
0
 10
-134.0942840576172
 20
-50.09052658081055
 30
0.7466517090797424
 11
-134.0942840576172
 21
-36.290523529052734
 31
0.7466517090797424
  0
LINE
  8
0
 10
-134.0942840576172
 20
-50.09052658081055
 30
0.7466517090797424
 11
-120.29428100585938
 21
-50.09052658081055
 31
0.7466517090797424
  0
LINE
  8
0
 10
-154.89427185058594
 20
47.90946578979492
 30
0.7466517090797424
 11
-154.89427185058594
 21
61.709468841552734
 31
0.7466517090797424
  0
LINE
  8
0
 10
-118.29428100585938
 20
47.90946578979492
 30
0.7466517090797424
 11
-118.29428100585938
 21
61.709468841552734
 31
0.7466517090797424
  0
LINE
  8
0
 10
-154.89427185058594
 20
47.90946578979492
 30
0.7466517090797424
 11
-141.0942840576172
 21
47.90946578979492
 31
0.7466517090797424
  0
LINE
  8
0
 10
86.50563049316406
 20
-50.09053421020508
 30
0.7466517090797424
 11
86.50563049316406
 21
-43.94053268432617
 31
0.7466517090797424
  0
LINE
  8
0
 10
111.30571746826172
 20
47.90946578979492
 30
0.7466517090797424
 11
111.30571746826172
 21
61.709468841552734
 31
0.7466517090797424
  0
LINE
  8
0
 10
-94.49427032470703
 20
61.709468841552734
 30
0.7466517090797424
 11
-80.69427490234375
 21
61.709468841552734
 31
0.7466517090797424
  0
LINE
  8
0
 10
-77.69429779052734
 20
-31.290525436401367
 30
0.7466517090797424
 11
-77.69429779052734
 21
-17.490530014038086
 31
0.7466517090797424
  0
LINE
  8
0
 10
-77.69429779052734
 20
-31.290525436401367
 30
0.7466517090797424
 11
-63.8942985534668
 21
-31.290525436401367
 31
0.7466517090797424
  0
LINE
  8
0
 10
16.305681228637695
 20
20.109468460083008
 30
0.7466517090797424
 11
30.105676651000977
 21
20.109468460083008
 31
0.7466517090797424
  0
LINE
  8
0
 10
-58.89430618286133
 20
38.90946578979492
 30
0.7466517090797424
 11
-45.094303131103516
 21
38.90946578979492
 31
0.7466517090797424
  0
LINE
  8
0
 10
35.10566711425781
 20
38.90946578979492
 30
0.7466517090797424
 11
48.90565872192383
 21
38.90946578979492
 31
0.7466517090797424
  0
LINE
  8
0
 10
35.10567092895508
 20
-50.09052658081055
 30
0.7466517090797424
 11
48.90565872192383
 21
-50.09052658081055
 31
0.7466517090797424
  0
LINE
  8
0
 10
-134.0942840576172
 20
-12.490528106689453
 30
0.7466517090797424
 11
-134.0942840576172
 21
1.3094676733016968
 31
0.7466517090797424
  0
LINE
  8
0
 10
-16.894323348999023
 20
-36.290523529052734
 30
0.7466517090797424
 11
-16.894323348999023
 21
-40.690574645996094
 31
0.7466517090797424
  0
LINE
  8
0
 10
-58.89430618286133
 20
20.109468460083008
 30
0.7466517090797424
 11
-45.094303131103516
 21
20.109468460083008
 31
0.7466517090797424
  0
LINE
  8
0
 10
-40.094303131103516
 20
6.309467792510986
 30
0.7466517090797424
 11
-40.094303131103516
 21
20.109468460083008
 31
0.7466517090797424
  0
LINE
  8
0
 10
-40.094303131103516
 20
6.309467792510986
 30
0.7466517090797424
 11
-26.2943115234375
 21
6.309467792510986
 31
0.7466517090797424
  0
LINE
  8
0
 10
139.105712890625
 20
47.90946578979492
 30
0.7466517090797424
 11
139.105712890625
 21
61.709468841552734
 31
0.7466517090797424
  0
LINE
  8
0
 10
-19.294279098510742
 20
47.90946578979492
 30
0.7466517090797424
 11
-19.294279098510742
 21
61.709468841552734
 31
0.7466517090797424
  0
LINE
  8
0
 10
13.305718421936035
 20
47.90946578979492
 30
0.7466517090797424
 11
13.305718421936035
 21
61.709468841552734
 31
0.7466517090797424
  0
LINE
  8
0
 10
95.5056381225586
 20
-54.090538024902344
 30
0.7466517090797424
 11
109.3056411743164
 21
-54.090538024902344
 31
0.7466517090797424
  0
LINE
  8
0
 10
-120.29428100585938
 20
25.109468460083008
 30
0.7466517090797424
 11
-120.29428100585938
 21
38.90946578979492
 31
0.7466517090797424
  0
LINE
  8
0
 10
-115.2942886352539
 20
-17.490530014038086
 30
0.7466517090797424
 11
-101.49429321289062
 21
-17.490530014038086
 31
0.7466517090797424
  0
LINE
  8
0
 10
11.305686950683594
 20
6.309467792510986
 30
0.7466517090797424
 11
11.305686950683594
 21
20.109468460083008
 31
0.7466517090797424
  0
LINE
  8
0
 10
-58.89430618286133
 20
25.109468460083008
 30
0.7466517090797424
 11
-58.89430618286133
 21
38.90946578979492
 31
0.7466517090797424
  0
LINE
  8
0
 10
-58.89430618286133
 20
25.109468460083008
 30
0.7466517090797424
 11
-45.094303131103516
 21
25.109468460083008
 31
0.7466517090797424
  0
LINE
  8
0
 10
-58.89430618286133
 20
-17.490530014038086
 30
0.7466517090797424
 11
-45.094303131103516
 21
-17.490530014038086
 31
0.7466517090797424
  0
LINE
  8
0
 10
-26.2943115234375
 20
-12.490528106689453
 30
0.7466517090797424
 11
-26.2943115234375
 21
1.3094676733016968
 31
0.7466517090797424
  0
LINE
  8
0
 10
67.70565032958984
 20
-31.290525436401367
 30
0.7466517090797424
 11
67.70565032958984
 21
-17.490530014038086
 31
0.7466517090797424
  0
LINE
  8
0
 10
139.105712890625
 20
38.90946578979492
 30
0.7466517090797424
 11
152.9056854248047
 21
38.90946578979492
 31
0.7466517090797424
  0
LINE
  8
0
 10
-96.49429321289062
 20
-12.490528106689453
 30
0.7466517090797424
 11
-96.49429321289062
 21
1.3094676733016968
 31
0.7466517090797424
  0
LINE
  8
0
 10
-96.49429321289062
 20
-12.490528106689453
 30
0.7466517090797424
 11
-82.69429779052734
 21
-12.490528106689453
 31
0.7466517090797424
  0
LINE
  8
0
 10
98.50563049316406
 20
6.309467792510986
 30
0.7466517090797424
 11
112.3056411743164
 21
6.309467792510986
 31
0.7466517090797424
  0
LINE
  8
0
 10
152.9056854248047
 20
-12.490528106689453
 30
0.7466517090797424
 11
152.9056854248047
 21
1.3094676733016968
 31
0.7466517090797424
  0
LINE
  8
0
 10
-26.2943115234375
 20
25.109468460083008
 30
0.7466517090797424
 11
-26.2943115234375
 21
38.90946578979492
 31
0.7466517090797424
  0
LINE
  8
0
 10
98.50563049316406
 20
20.109468460083008
 30
0.7466517090797424
 11
112.3056411743164
 21
20.109468460083008
 31
0.7466517090797424
  0
LINE
  8
0
 10
-154.89427185058594
 20
6.309467792510986
 30
0.7466517090797424
 11
-154.89427185058594
 21
20.109468460083008
 31
0.7466517090797424
  0
LINE
  8
0
 10
-154.89427185058594
 20
6.309467792510986
 30
0.7466517090797424
 11
-141.0942840576172
 21
6.309467792510986
 31
0.7466517090797424
  0
LINE
  8
0
 10
-141.0942840576172
 20
-12.490528106689453
 30
0.7466517090797424
 11
-141.0942840576172
 21
1.3094676733016968
 31
0.7466517090797424
  0
LINE
  8
0
 10
-115.2942886352539
 20
-36.290523529052734
 30
0.7466517090797424
 11
-101.49429321289062
 21
-36.290523529052734
 31
0.7466517090797424
  0
LINE
  8
0
 10
-40.094303131103516
 20
-11.149041175842285
 30
0.7466517090797424
 11
-40.094303131103516
 21
-12.490528106689453
 31
0.7466517090797424
  0
LINE
  8
0
 10
-40.094303131103516
 20
-11.149041175842285
 30
0.7466517090797424
 11
-40.094303131103516
 21
1.3094676733016968
 31
0.7466517090797424
  0
LINE
  8
0
 10
-77.69429779052734
 20
-17.490530014038086
 30
0.7466517090797424
 11
-63.8942985534668
 21
-17.490530014038086
 31
0.7466517090797424
  0
LINE
  8
0
 10
-40.094303131103516
 20
1.3094676733016968
 30
0.7466517090797424
 11
-26.2943115234375
 21
1.3094676733016968
 31
0.7466517090797424
  0
LINE
  8
0
 10
-101.49429321289062
 20
25.109468460083008
 30
0.7466517090797424
 11
-101.49429321289062
 21
38.90946578979492
 31
0.7466517090797424
  0
LINE
  8
0
 10
35.10567092895508
 20
-36.290523529052734
 30
0.7466517090797424
 11
48.90565872192383
 21
-36.290523529052734
 31
0.7466517090797424
  0
LINE
  8
0
 10
-134.0942840576172
 20
1.3094676733016968
 30
0.7466517090797424
 11
-120.29428100585938
 21
1.3094676733016968
 31
0.7466517090797424
  0
LINE
  8
0
 10
-21.294309616088867
 20
-17.490530014038086
 30
0.7466517090797424
 11
-7.494315147399902
 21
-17.490530014038086
 31
0.7466517090797424
  0
LINE
  8
0
 10
53.9056510925293
 20
25.109468460083008
 30
0.7466517090797424
 11
53.9056510925293
 21
38.90946578979492
 31
0.7466517090797424
  0
LINE
  8
0
 10
53.9056510925293
 20
25.109468460083008
 30
0.7466517090797424
 11
67.70565032958984
 21
25.109468460083008
 31
0.7466517090797424
  0
LINE
  8
0
 10
-21.294309616088867
 20
1.3094676733016968
 30
0.7466517090797424
 11
-7.494315147399902
 21
1.3094676733016968
 31
0.7466517090797424
  0
LINE
  8
0
 10
139.105712890625
 20
-31.2905330657959
 30
0.7466517090797424
 11
139.105712890625
 21
-17.490530014038086
 31
0.7466517090797424
  0
LINE
  8
0
 10
72.70565032958984
 20
25.109468460083008
 30
0.7466517090797424
 11
72.70565032958984
 21
38.90946578979492
 31
0.7466517090797424
  0
LINE
  8
0
 10
35.10566711425781
 20
-17.490530014038086
 30
0.7466517090797424
 11
48.90565872192383
 21
-17.490530014038086
 31
0.7466517090797424
  0
LINE
  8
0
 10
-40.094303131103516
 20
20.109468460083008
 30
0.7466517090797424
 11
-26.2943115234375
 21
20.109468460083008
 31
0.7466517090797424
  0
LINE
  8
0
 10
-21.294309616088867
 20
25.109468460083008
 30
0.7466517090797424
 11
-21.294309616088867
 21
38.90946578979492
 31
0.7466517090797424
  0
LINE
  8
0
 10
-21.294309616088867
 20
25.109468460083008
 30
0.7466517090797424
 11
-7.494315147399902
 21
25.109468460083008
 31
0.7466517090797424
  0
LINE
  8
0
 10
-38.09428024291992
 20
61.709468841552734
 30
0.7466517090797424
 11
-24.294281005859375
 21
61.709468841552734
 31
0.7466517090797424
  0
LINE
  8
0
 10
114.3056411743164
 20
-54.090538024902344
 30
0.7466517090797424
 11
114.3056411743164
 21
-40.29053497314453
 31
0.7466517090797424
  0
LINE
  8
0
 10
114.3056411743164
 20
-54.090538024902344
 30
0.7466517090797424
 11
128.10562133789062
 21
-54.090538024902344
 31
0.7466517090797424
  0
LINE
  8
0
 10
-96.49429321289062
 20
-17.490530014038086
 30
0.7466517090797424
 11
-82.69429779052734
 21
-17.490530014038086
 31
0.7466517090797424
  0
LINE
  8
0
 10
-134.0942840576172
 20
-12.490528106689453
 30
0.7466517090797424
 11
-127.94428253173828
 21
-12.490528106689453
 31
0.7466517090797424
  0
LINE
  8
0
 10
-58.89430618286133
 20
-31.290525436401367
 30
0.7466517090797424
 11
-58.89430618286133
 21
-17.490530014038086
 31
0.7466517090797424
  0
LINE
  8
0
 10
-58.89430618286133
 20
-31.290525436401367
 30
0.7466517090797424
 11
-45.094303131103516
 21
-31.290525436401367
 31
0.7466517090797424
  0
LINE
  8
0
 10
-134.0942840576172
 20
25.109468460083008
 30
0.7466517090797424
 11
-120.29428100585938
 21
25.109468460083008
 31
0.7466517090797424
  0
LINE
  8
0
 10
-26.2943115234375
 20
-31.290525436401367
 30
0.7466517090797424
 11
-26.2943115234375
 21
-17.490530014038086
 31
0.7466517090797424
  0
LINE
  8
0
 10
-21.294309616088867
 20
-31.290525436401367
 30
0.7466517090797424
 11
-21.294309616088867
 21
-17.490530014038086
 31
0.7466517090797424
  0
LINE
  8
0
 10
-0.4942769408226013
 20
47.90946578979492
 30
0.7466517090797424
 11
-0.4942769408226013
 21
61.709468841552734
 31
0.7466517090797424
  0
LINE
  8
0
 10
-21.294309616088867
 20
-31.290525436401367
 30
0.7466517090797424
 11
-15.144311904907227
 21
-31.290525436401367
 31
0.7466517090797424
  0
LINE
  8
0
 10
-45.094303131103516
 20
6.309467792510986
 30
0.7466517090797424
 11
-45.094303131103516
 21
20.109468460083008
 31
0.7466517090797424
  0
LINE
  8
0
 10
139.105712890625
 20
-31.2905330657959
 30
0.7466517090797424
 11
152.9056854248047
 21
-31.2905330657959
 31
0.7466517090797424
  0
LINE
  8
0
 10
11.305686950683594
 20
-31.290525436401367
 30
0.7466517090797424
 11
11.305686950683594
 21
-17.490530014038086
 31
0.7466517090797424
  0
LINE
  8
0
 10
-82.69429779052734
 20
6.309467792510986
 30
0.7466517090797424
 11
-82.69429779052734
 21
20.109468460083008
 31
0.7466517090797424
  0
LINE
  8
0
 10
98.50563049316406
 20
6.309467792510986
 30
0.7466517090797424
 11
98.50563049316406
 21
20.109468460083008
 31
0.7466517090797424
  0
LINE
  8
0
 10
-77.69429779052734
 20
25.109468460083008
 30
0.7466517090797424
 11
-77.69429779052734
 21
38.90946578979492
 31
0.7466517090797424
  0
LINE
  8
0
 10
95.5056381225586
 20
-46.4405403137207
 30
0.7466517090797424
 11
95.5056381225586
 21
-40.29053497314453
 31
0.7466517090797424
  0
LINE
  8
0
 10
-2.494307518005371
 20
1.3094676733016968
 30
0.7466517090797424
 11
11.305686950683594
 21
1.3094676733016968
 31
0.7466517090797424
  0
LINE
  8
0
 10
-77.69429779052734
 20
25.109468460083008
 30
0.7466517090797424
 11
-63.8942985534668
 21
25.109468460083008
 31
0.7466517090797424
  0
LINE
  8
0
 10
67.70565032958984
 20
-31.290525436401367
 30
0.7466517090797424
 11
53.9056510925293
 21
-31.290525436401367
 31
0.7466517090797424
  0
LINE
  8
0
 10
50.90571594238281
 20
47.90946578979492
 30
0.7466517090797424
 11
50.90571594238281
 21
61.709468841552734
 31
0.7466517090797424
  0
LINE
  8
0
 10
-77.69429779052734
 20
-12.490528106689453
 30
0.7466517090797424
 11
-77.69429779052734
 21
1.3094676733016968
 31
0.7466517090797424
  0
LINE
  8
0
 10
-77.69429779052734
 20
-12.490528106689453
 30
0.7466517090797424
 11
-63.8942985534668
 21
-12.490528106689453
 31
0.7466517090797424
  0
LINE
  8
0
 10
-38.09428024291992
 20
47.90946578979492
 30
0.7466517090797424
 11
-38.09428024291992
 21
61.709468841552734
 31
0.7466517090797424
  0
LINE
  8
0
 10
-120.29428100585938
 20
-50.09052658081055
 30
0.7466517090797424
 11
-120.29428100585938
 21
-36.290523529052734
 31
0.7466517090797424
  0
LINE
  8
0
 10
-38.09428024291992
 20
47.90946578979492
 30
0.7466517090797424
 11
-24.294281005859375
 21
47.90946578979492
 31
0.7466517090797424
  0
LINE
  8
0
 10
-21.294309616088867
 20
38.90946578979492
 30
0.7466517090797424
 11
-7.494315147399902
 21
38.90946578979492
 31
0.7466517090797424
  0
LINE
  8
0
 10
-141.0942840576172
 20
47.90946578979492
 30
0.7466517090797424
 11
-141.0942840576172
 21
61.709468841552734
 31
0.7466517090797424
  0
LINE
  8
0
 10
50.90571594238281
 20
47.90946578979492
 30
0.7466517090797424
 11
37.105735778808594
 21
47.90946578979492
 31
0.7466517090797424
  0
LINE
  8
0
 10
-115.2942886352539
 20
-50.09052658081055
 30
0.7466517090797424
 11
-101.49429321289062
 21
-50.09052658081055
 31
0.7466517090797424
  0
LINE
  8
0
 10
-75.69428253173828
 20
61.709468841552734
 30
0.7466517090797424
 11
-61.894283294677734
 21
61.709468841552734
 31
0.7466517090797424
  0
LINE
  8
0
 10
-82.69429779052734
 20
-31.290525436401367
 30
0.7466517090797424
 11
-82.69429779052734
 21
-17.490530014038086
 31
0.7466517090797424
  0
LINE
  8
0
 10
116.30571746826172
 20
61.709468841552734
 30
0.7466517090797424
 11
130.10569763183594
 21
61.709468841552734
 31
0.7466517090797424
  0
LINE
  8
0
 10
-141.99427795410156
 20
-31.290525436401367
 30
0.7466517090797424
 11
-141.99427795410156
 21
-17.490530014038086
 31
0.7466517090797424
  0
LINE
  8
0
 10
-40.094303131103516
 20
-31.290525436401367
 30
0.7466517090797424
 11
-40.094303131103516
 21
-17.490530014038086
 31
0.7466517090797424
  0
LINE
  8
0
 10
-141.99427795410156
 20
-31.290525436401367
 30
0.7466517090797424
 11
-128.1942901611328
 21
-31.290525436401367
 31
0.7466517090797424
  0
LINE
  8
0
 10
-40.094303131103516
 20
-31.290525436401367
 30
0.7466517090797424
 11
-26.2943115234375
 21
-31.290525436401367
 31
0.7466517090797424
  0
LINE
  8
0
 10
48.90565872192383
 20
6.309467792510986
 30
0.7466517090797424
 11
48.90565872192383
 21
20.109468460083008
 31
0.7466517090797424
  0
LINE
  8
0
 10
99.4056396484375
 20
1.3094676733016968
 30
0.7466517090797424
 11
85.60564422607422
 21
1.3094676733016968
 31
0.7466517090797424
  0
LINE
  8
0
 10
67.70565032958984
 20
6.309467792510986
 30
0.7466517090797424
 11
67.70565032958984
 21
20.109468460083008
 31
0.7466517090797424
  0
LINE
  8
0
 10
35.10566711425781
 20
-31.290525436401367
 30
0.7466517090797424
 11
35.10566711425781
 21
-17.490530014038086
 31
0.7466517090797424
  0
LINE
  8
0
 10
35.10566711425781
 20
-31.290525436401367
 30
0.7466517090797424
 11
48.90565872192383
 21
-31.290525436401367
 31
0.7466517090797424
  0
LINE
  8
0
 10
-120.29428100585938
 20
20.109468460083008
 30
0.7466517090797424
 11
-134.0942840576172
 21
20.109468460083008
 31
0.7466517090797424
  0
LINE
  8
0
 10
-120.29428100585938
 20
20.109468460083008
 30
0.7466517090797424
 11
-120.29428100585938
 21
6.309467792510986
 31
0.7466517090797424
  0
LINE
  8
0
 10
37.105735778808594
 20
61.709468841552734
 30
0.7466517090797424
 11
50.90571594238281
 21
61.709468841552734
 31
0.7466517090797424
  0
LINE
  8
0
 10
16.305681228637695
 20
-12.490528106689453
 30
0.7466517090797424
 11
16.305681228637695
 21
1.3094676733016968
 31
0.7466517090797424
  0
LINE
  8
0
 10
16.305681228637695
 20
-12.490528106689453
 30
0.7466517090797424
 11
30.105676651000977
 21
-12.490528106689453
 31
0.7466517090797424
  0
LINE
  8
0
 10
74.70574188232422
 20
61.709468841552734
 30
0.7466517090797424
 11
88.50572967529297
 21
61.709468841552734
 31
0.7466517090797424
  0
LINE
  8
0
 10
-5.494277000427246
 20
47.90946578979492
 30
0.7466517090797424
 11
-5.494277000427246
 21
61.709468841552734
 31
0.7466517090797424
  0
LINE
  8
0
 10
-19.294279098510742
 20
47.90946578979492
 30
0.7466517090797424
 11
-5.494277000427246
 21
47.90946578979492
 31
0.7466517090797424
  0
LINE
  8
0
 10
95.5056381225586
 20
-40.29053497314453
 30
0.7466517090797424
 11
109.3056411743164
 21
-40.29053497314453
 31
0.7466517090797424
  0
LINE
  8
0
 10
37.105735778808594
 20
61.709468841552734
 30
0.7466517090797424
 11
37.105735778808594
 21
47.90946578979492
 31
0.7466517090797424
  0
LINE
  8
0
 10
-134.0942840576172
 20
6.309467792510986
 30
0.7466517090797424
 11
-134.0942840576172
 21
20.109468460083008
 31
0.7466517090797424
  0
LINE
  8
0
 10
-134.0942840576172
 20
6.309467792510986
 30
0.7466517090797424
 11
-120.29428100585938
 21
6.309467792510986
 31
0.7466517090797424
  0
LINE
  8
0
 10
-101.49429321289062
 20
-31.290525436401367
 30
0.7466517090797424
 11
-101.49429321289062
 21
-17.490530014038086
 31
0.7466517090797424
  0
LINE
  8
0
 10
-115.2942886352539
 20
-50.09052658081055
 30
0.7466517090797424
 11
-115.2942886352539
 21
-36.290523529052734
 31
0.7466517090797424
  0
LINE
  8
0
 10
114.3056411743164
 20
-35.290531158447266
 30
0.7466517090797424
 11
114.3056411743164
 21
-21.490528106689453
 31
0.7466517090797424
  0
LINE
  8
0
 10
114.3056411743164
 20
-35.290531158447266
 30
0.7466517090797424
 11
128.10562133789062
 21
-35.290531158447266
 31
0.7466517090797424
  0
LINE
  8
0
 10
29.486677169799805
 20
-40.69157409667969
 30
0.746651828289032
 11
29.486677169799805
 21
-38.088592529296875
 31
0.7466517090797424
  0
LINE
  8
0
 10
24.683155059814453
 20
-48.289676666259766
 30
0.7466517090797424
 11
22.88555908203125
 21
-48.289676666259766
 31
0.7466517090797424
  0
LINE
  8
0
 10
24.68096351623535
 20
-36.290523529052734
 30
0.7466517090797424
 11
27.686342239379883
 21
-36.290523529052734
 31
0.7466517090797424
  0
LINE
  8
0
 10
-75.28428649902344
 20
-36.290523529052734
 30
0.7466517090797424
 11
-72.28972625732422
 21
-36.290523529052734
 31
0.7466517090797424
  0
LINE
  8
0
 10
-72.28190612792969
 20
-50.09052658081055
 30
0.7466517090797424
 11
-75.28631591796875
 21
-50.09052658081055
 31
0.7466517090797424
  0
LINE
  8
0
 10
103.2181625366211
 20
1.3094676733016968
 30
0.7466517090797424
 11
106.22552490234375
 21
1.3094676733016968
 31
0.7466517090797424
  0
LINE
  8
0
 10
108.02454376220703
 20
-10.690006256103516
 30
0.7466517090797424
 11
106.22020721435547
 21
-10.690006256103516
 31
0.7466517090797424
  0
LINE
  8
0
 10
106.22020721435547
 20
-12.4905366897583
 30
0.7466517090797424
 11
103.22693634033203
 21
-12.4905366897583
 31
0.7466517090797424
  0
LINE
  8
0
 10
81.79010009765625
 20
-0.49517378211021423
 30
0.7466517090797424
 11
81.79010009765625
 21
1.3094676733016968
 31
0.7466517090797424
  0
LINE
  8
0
 10
101.4181137084961
 20
-0.4902464747428894
 30
0.7466517090797424
 11
103.2181625366211
 21
-0.4902464747428894
 31
0.7466517090797424
  0
LINE
  8
0
 10
85.60564422607422
 20
-3.0828030109405518
 30
0.7466517090797424
 11
83.59215545654297
 21
-3.082224130630493
 31
0.7466517090797424
  0
LINE
  8
0
 10
78.77081298828125
 20
-12.490528106689453
 30
0.7466517090797424
 11
81.78792572021484
 21
-12.490527153015137
 31
0.7466517090797424
  0
LINE
  8
0
 10
83.59215545654297
 20
-8.08974838256836
 30
0.7466517090797424
 11
85.60564422607422
 21
-8.090519905090332
 31
0.7466517090797424
  0
LINE
  8
0
 10
24.683155059814453
 20
-50.09052658081055
 30
0.7466517090797424
 11
24.683155059814453
 21
-48.289676666259766
 31
0.7466517090797424
  0
LINE
  8
0
 10
35.10567092895508
 20
-50.09052658081055
 30
0.7466517090797424
 11
35.10567092895508
 21
-36.290523529052734
 31
0.7466517090797424
  0
LINE
  8
0
 10
27.686342239379883
 20
-36.290523529052734
 30
0.7466517090797424
 11
27.686342239379883
 21
-38.088592529296875
 31
0.7466517090797424
  0
LINE
  8
0
 10
27.688369750976562
 20
-50.09052658081055
 30
0.7466517090797424
 11
24.683155059814453
 21
-50.09052658081055
 31
0.7466517090797424
  0
LINE
  8
0
 10
-72.28190612792969
 20
-48.28636169433594
 30
0.7466517090797424
 11
-70.4864273071289
 21
-48.28636169433594
 31
0.7466517090797424
  0
LINE
  8
0
 10
-77.08642578125
 20
-48.28636169433594
 30
0.7466517090797424
 11
-75.28631591796875
 21
-48.28636169433594
 31
0.7466517090797424
  0
LINE
  8
0
 10
-82.69429779052734
 20
-50.09052658081055
 30
0.7466517090797424
 11
-82.69429779052734
 21
-36.290523529052734
 31
0.7466517090797424
  0
LINE
  8
0
 10
76.9697494506836
 20
-10.69299030303955
 30
0.7466517090797424
 11
78.77081298828125
 21
-10.69299030303955
 31
0.7466517090797424
  0
LINE
  8
0
 10
67.70565032958984
 20
-12.490528106689453
 30
0.7466517090797424
 11
67.70565032958984
 21
1.3094676733016968
 31
0.7466517090797424
  0
LINE
  8
0
 10
106.22552490234375
 20
-0.49132290482521057
 30
0.7466517090797424
 11
106.22552490234375
 21
1.3094676733016968
 31
0.7466517090797424
  0
LINE
  8
0
 10
85.60564422607422
 20
-12.490528106689453
 30
0.7466517090797424
 11
85.60564422607422
 21
-8.090519905090332
 31
0.7466517090797424
  0
LINE
  8
0
 10
108.02454376220703
 20
-0.49132290482521057
 30
0.7466517090797424
 11
106.22552490234375
 21
-0.49132290482521057
 31
0.7466517090797424
  0
LINE
  8
0
 10
-134.0942840576172
 20
-36.290523529052734
 30
0.7466517090797424
 11
-120.29428100585938
 21
-36.290523529052734
 31
0.7466517090797424
  0
LINE
  8
0
 10
75.67926788330078
 20
-5.084019660949707
 30
0.7466517090797424
 11
75.67926788330078
 21
-3.082986354827881
 31
0.7466517090797424
  0
LINE
  8
0
 10
-101.49429321289062
 20
25.109468460083008
 30
0.7466517090797424
 11
-101.49429321289062
 21
25.109468460083008
 31
0.7466517090797424
  0
LINE
  8
0
 10
-96.4942855834961
 20
25.109468460083008
 30
0.7466517090797424
 11
-82.69429779052734
 21
25.109468460083008
 31
0.7466517090797424
  0
LINE
  8
0
 10
-96.49429321289062
 20
38.90946578979492
 30
0.7466517090797424
 11
-96.4942855834961
 21
25.109468460083008
 31
0.7466517090797424
  0
LINE
  8
0
 10
-82.69429779052734
 20
25.109468460083008
 30
0.7466517090797424
 11
-96.4942855834961
 21
25.109468460083008
 31
0.7466517090797424
  0
LINE
  8
0
 10
-96.4942855834961
 20
25.109468460083008
 30
0.7466517090797424
 11
-96.4942855834961
 21
25.109468460083008
 31
0.7466517090797424
  0
LINE
  8
0
 10
101.4181137084961
 20
-8.078961372375488
 30
0.7466517090797424
 11
99.4056396484375
 21
-8.078956604003906
 31
0.7466517090797424
  0
LINE
  8
0
 10
101.4181137084961
 20
-3.0831868648529053
 30
0.7466517090797424
 11
99.4056396484375
 21
-3.083183765411377
 31
0.7466517090797424
  0
LINE
  8
0
 10
99.4056396484375
 20
1.3094676733016968
 30
0.7466517090797424
 11
99.4056396484375
 21
-3.083183765411377
 31
0.7466517090797424
  0
LINE
  8
0
 10
83.59215545654297
 20
-8.08974838256836
 30
0.7466517090797424
 11
83.59215545654297
 21
-10.689204216003418
 31
0.7466517090797424
  0
LINE
  8
0
 10
108.02454376220703
 20
-3.0770726203918457
 30
0.7466517090797424
 11
109.31663513183594
 21
-3.0770726203918457
 31
0.7466517090797424
  0
LINE
  8
0
 10
101.4181137084961
 20
-10.690925598144531
 30
0.7466517090797424
 11
103.22693634033203
 21
-10.690925598144531
 31
0.7466517090797424
  0
LINE
  8
0
 10
101.4181137084961
 20
-8.078961372375488
 30
0.7466517090797424
 11
101.4181137084961
 21
-10.690925598144531
 31
0.7466517090797424
  0
LINE
  8
0
 10
103.22693634033203
 20
-12.4905366897583
 30
0.7466517090797424
 11
103.22693634033203
 21
-10.690925598144531
 31
0.7466517090797424
  0
LINE
  8
0
 10
85.60564422607422
 20
1.3094676733016968
 30
0.7466517090797424
 11
85.60564422607422
 21
-3.0828030109405518
 31
0.7466517090797424
  0
LINE
  8
0
 10
78.77081298828125
 20
-12.490528106689453
 30
0.7466517090797424
 11
78.77081298828125
 21
-10.69299030303955
 31
0.7466517090797424
  0
LINE
  8
0
 10
81.78792572021484
 20
-10.689204216003418
 30
0.7466517090797424
 11
81.78792572021484
 21
-12.490527153015137
 31
0.7466517090797424
  0
LINE
  8
0
 10
81.78792572021484
 20
-10.689204216003418
 30
0.7466517090797424
 11
83.59215545654297
 21
-10.689204216003418
 31
0.7466517090797424
  0
LINE
  8
0
 10
83.59215545654297
 20
-0.49517378211021423
 30
0.7466517090797424
 11
81.79010009765625
 21
-0.49517378211021423
 31
0.7466517090797424
  0
LINE
  8
0
 10
76.9697494506836
 20
-0.4941878914833069
 30
0.7466517090797424
 11
78.76814270019531
 21
-0.4941878914833069
 31
0.7466517090797424
  0
LINE
  8
0
 10
78.76814270019531
 20
1.3094676733016968
 30
0.7466517090797424
 11
78.76814270019531
 21
-0.4941878914833069
 31
0.7466517090797424
  0
LINE
  8
0
 10
76.9697494506836
 20
-0.4941878914833069
 30
0.7466517090797424
 11
76.9697494506836
 21
-3.082986354827881
 31
0.7466517090797424
  0
LINE
  8
0
 10
78.76814270019531
 20
1.3094676733016968
 30
0.7466517090797424
 11
81.79010009765625
 21
1.3094676733016968
 31
0.7466517090797424
  0
LINE
  8
0
 10
83.59215545654297
 20
-0.49517378211021423
 30
0.7466517090797424
 11
83.59215545654297
 21
-3.082224130630493
 31
0.7466517090797424
  0
LINE
  8
0
 10
103.2181625366211
 20
1.3094676733016968
 30
0.7466517090797424
 11
103.2181625366211
 21
-0.4902464747428894
 31
0.7466517090797424
  0
LINE
  8
0
 10
101.4181137084961
 20
-3.0831868648529053
 30
0.7466517090797424
 11
101.4181137084961
 21
-0.4902464747428894
 31
0.7466517090797424
  0
LINE
  8
0
 10
108.02454376220703
 20
-0.49132290482521057
 30
0.7466517090797424
 11
108.02454376220703
 21
-3.0770726203918457
 31
0.7466517090797424
  0
LINE
  8
0
 10
108.02454376220703
 20
-5.079103946685791
 30
0.7466517090797424
 11
109.31663513183594
 21
-5.079103946685791
 31
0.7466517090797424
  0
LINE
  8
0
 10
109.31663513183594
 20
-3.0770726203918457
 30
0.7466517090797424
 11
109.31663513183594
 21
-5.079103946685791
 31
0.7466517090797424
  0
LINE
  8
0
 10
108.02454376220703
 20
-10.690006256103516
 30
0.7466517090797424
 11
108.02454376220703
 21
-5.079103946685791
 31
0.7466517090797424
  0
LINE
  8
0
 10
76.9697494506836
 20
-10.69299030303955
 30
0.7466517090797424
 11
76.9697494506836
 21
-5.084019660949707
 31
0.7466517090797424
  0
LINE
  8
0
 10
76.9697494506836
 20
-5.084019660949707
 30
0.7466517090797424
 11
75.67926788330078
 21
-5.084019660949707
 31
0.7466517090797424
  0
LINE
  8
0
 10
76.9697494506836
 20
-3.082986354827881
 30
0.7466517090797424
 11
75.67926788330078
 21
-3.082986354827881
 31
0.7466517090797424
  0
LINE
  8
0
 10
29.486677169799805
 20
-48.29188537597656
 30
0.7466517090797424
 11
27.688369750976562
 21
-48.29188537597656
 31
0.7466517090797424
  0
LINE
  8
0
 10
22.88555908203125
 20
-48.289676666259766
 30
0.7466517090797424
 11
22.88555908203125
 21
-42.6911735534668
 31
0.7466517090797424
  0
LINE
  8
0
 10
27.688369750976562
 20
-50.09052658081055
 30
0.7466517090797424
 11
27.688369750976562
 21
-48.29188537597656
 31
0.7466517090797424
  0
LINE
  8
0
 10
22.88555908203125
 20
-38.08979415893555
 30
0.7466517090797424
 11
22.88555908203125
 21
-40.69050598144531
 31
0.7466517090797424
  0
LINE
  8
0
 10
29.486677169799805
 20
-42.7011833190918
 30
0.7466517090797424
 11
29.486677169799805
 21
-48.29188537597656
 31
0.7466517090797424
  0
LINE
  8
0
 10
24.68096351623535
 20
-36.290523529052734
 30
0.7466517090797424
 11
24.68096351623535
 21
-38.08979415893555
 31
0.7466517090797424
  0
LINE
  8
0
 10
29.486677169799805
 20
-42.7011833190918
 30
0.7466517090797424
 11
30.790050506591797
 21
-42.7011833190918
 31
0.7466517090797424
  0
LINE
  8
0
 10
27.686342239379883
 20
-38.088592529296875
 30
0.7466517090797424
 11
29.486677169799805
 21
-38.088592529296875
 31
0.7466517090797424
  0
LINE
  8
0
 10
22.88555908203125
 20
-38.08979415893555
 30
0.7466517090797424
 11
24.68096351623535
 21
-38.08979415893555
 31
0.7466517090797424
  0
LINE
  8
0
 10
-16.894323348999023
 20
-50.09052658081055
 30
0.7466517090797424
 11
-16.894323348999023
 21
-42.691646575927734
 31
0.7466517090797424
  0
LINE
  8
0
 10
-30.694313049316406
 20
-50.09052658081055
 30
0.7466517090797424
 11
-30.694313049316406
 21
-42.694644927978516
 31
0.7466517090797424
  0
LINE
  8
0
 10
29.486677169799805
 20
-40.69157409667969
 30
0.746651828289032
 11
30.790050506591797
 21
-40.69157409667969
 31
0.7466517090797424
  0
LINE
  8
0
 10
21.356674194335938
 20
-40.69050598144531
 30
0.7466517090797424
 11
22.88555908203125
 21
-40.69050598144531
 31
0.7466517090797424
  0
LINE
  8
0
 10
22.88555908203125
 20
-42.6911735534668
 30
0.7466517090797424
 11
21.2694034576416
 21
-42.6911735534668
 31
0.7466517090797424
  0
LINE
  8
0
 10
21.356674194335938
 20
-40.69050598144531
 30
0.7466517090797424
 11
-16.894323348999023
 21
-40.690574645996094
 31
0.7466517090797424
  0
LINE
  8
0
 10
-16.894323348999023
 20
-42.691646575927734
 30
0.7466517090797424
 11
21.2694034576416
 21
-42.6911735534668
 31
0.7466517090797424
  0
LINE
  8
0
 10
-75.28631591796875
 20
-50.09052658081055
 30
0.7466517090797424
 11
-75.28631591796875
 21
-48.28636169433594
 31
0.7466517090797424
  0
LINE
  8
0
 10
-72.28190612792969
 20
-50.09052658081055
 30
0.7466517090797424
 11
-72.28190612792969
 21
-48.28636169433594
 31
0.7466517090797424
  0
LINE
  8
0
 10
-72.28972625732422
 20
-38.092987060546875
 30
0.7466517090797424
 11
-70.4864273071289
 21
-38.092987060546875
 31
0.7466517090797424
  0
LINE
  8
0
 10
-77.08642578125
 20
-38.092987060546875
 30
0.7466517090797424
 11
-75.28428649902344
 21
-38.092987060546875
 31
0.7466517090797424
  0
LINE
  8
0
 10
-72.28972625732422
 20
-36.290523529052734
 30
0.7466517090797424
 11
-72.28972625732422
 21
-38.092987060546875
 31
0.7466517090797424
  0
LINE
  8
0
 10
-75.28428649902344
 20
-36.290523529052734
 30
0.7466517090797424
 11
-75.28428649902344
 21
-38.092987060546875
 31
0.7466517090797424
  0
LINE
  8
0
 10
-77.08642578125
 20
-40.695098876953125
 30
0.7466517090797424
 11
-77.08642578125
 21
-38.092987060546875
 31
0.7466517090797424
  0
LINE
  8
0
 10
-77.08642578125
 20
-42.69927978515625
 30
0.7466517090797424
 11
-77.08642578125
 21
-48.28636169433594
 31
0.7466517090797424
  0
LINE
  8
0
 10
-70.4864273071289
 20
-42.691673278808594
 30
0.7466517090797424
 11
-70.4864273071289
 21
-48.28636169433594
 31
0.7466517090797424
  0
LINE
  8
0
 10
-70.4864273071289
 20
-40.68950653076172
 30
0.7466517090797424
 11
-70.4864273071289
 21
-38.092987060546875
 31
0.7466517090797424
  0
LINE
  8
0
 10
-70.4864273071289
 20
-40.68950653076172
 30
0.7466517090797424
 11
-69.19133758544922
 21
-40.68950653076172
 31
0.7466517090797424
  0
LINE
  8
0
 10
-70.4864273071289
 20
-42.691673278808594
 30
0.7466517090797424
 11
-69.19133758544922
 21
-42.691673278808594
 31
0.7466517090797424
  0
LINE
  8
0
 10
-77.08642578125
 20
-40.695098876953125
 30
0.7466517090797424
 11
-78.38368225097656
 21
-40.695098876953125
 31
0.7466517090797424
  0
LINE
  8
0
 10
-77.08642578125
 20
-42.69927978515625
 30
0.7466517090797424
 11
-78.38368225097656
 21
-42.69927978515625
 31
0.7466517090797424
  0
LINE
  8
0
 10
-78.38368225097656
 20
-42.69927978515625
 30
0.7466517090797424
 11
-78.38368225097656
 21
-40.695098876953125
 31
0.7466517090797424
  0
LINE
  8
0
 10
-30.694313049316406
 20
-40.693580627441406
 30
0.7466517090797424
 11
-69.19133758544922
 21
-40.68950653076172
 31
0.7466517090797424
  0
LINE
  8
0
 10
-30.694313049316406
 20
-42.694644927978516
 30
0.7466517090797424
 11
-69.19133758544922
 21
-42.691673278808594
 31
0.7466517090797424
  0
ENDSEC
  0
EOF
