  0
SECTION
  2
HEADER
  9
$ACADVER
  1
AC1009
  9
$INSBASE
 10
0.0
 20
0.0
 30
0.0
  9
$EXTMIN
 10
0.0
 20
0.0
 30
0.0
  9
$EXTMAX
 10
0.0
 20
0.0
 30
0.0
  0
ENDSEC
  0
SECTION
  2
TABLES
  0
TABLE
  2
VPORT
 70
1
  0
VPORT
  2
*ACTIVE
 70
0
 10
0.0
 20
0.0
 11
1.0
 21
1.0
 12
-5.0
 22
1.0
 13
0.0
 23
0.0
 14
0.1
 24
0.1
 15
0.1
 25
0.1
 16
0.0
 26
0.0
 36
1.0
 17
0.0
 27
0.0
 37
0.0
 40
10.0
 41
1.0
 42
50.0
 43
0.0
 44
0.0
 50
0.0
 51
0.0
 71
0
 72
100
 73
1
 74
1
 75
0
 76
0
 77
0
 78
0
  0
ENDTAB
  0
TABLE
  2
LTYPE
 70
8
  0
LTYPE
  2
CONTINUOUS
 70
0
  3
Solid line
 72
65
 73
0
 40
0.0
  0
LTYPE
  2
DOT
 70
0
  3
. . . . . . .
 72
65
 73
2
 40
0.25
 49
0.0
 49
-0.25
  0
LTYPE
  2
DASHED
 70
0
  3
__ __ __ __ __
 72
65
 73
2
 40
0.8
 49
0.5
 49
-0.3
  0
LTYPE
  2
DASHDOT
 70
0
  3
__ . __ . __ .
 72
65
 73
4
 40
1.0
 49
0.5
 49
-0.25
 49
0.0
 49
-0.25
  0
LTYPE
  2
DIVIDE
 70
0
  3
____ . . ____ . . 
 72
65
 73
6
 40
1.25
 49
0.5
 49
-0.25
 49
0.0
 49
-0.25
 49
0.0
 49
-0.25
  0
LTYPE
  2
BORDER
 70
0
  3
__ __ . __ __ . 
 72
65
 73
6
 40
1.75
 49
0.5
 49
-0.25
 49
0.5
 49
-0.25
 49
0.0
 49
-0.25
  0
LTYPE
  2
HIDDEN
 70
0
  3
__ __ __ __ __
 72
65
 73
2
 40
0.4
 49
0.25
 49
-0.25
  0
LTYPE
  2
CENTER
 70
0
  3
____ _ ____ _ __
 72
65
 73
4
 40
2.0
 49
1.25
 49
-0.25
 49
0.25
 49
-0.25
  0
ENDTAB
  0
TABLE
  2
LAYER
 70
1
  0
LAYER
  2
PYDXF
 70
64
 62
7
  6
continuous
  0
ENDTAB
  0
TABLE
  2
STYLE
 70
1
  0
STYLE
  2
STANDARD
 70
0
 40
0
 41
1.0
 50
0.0
 71
0
 42
1
 3
ARIAL.TTF
 4

  0
ENDTAB
  0
TABLE
  2
VIEW
 70
1
  0
VIEW
  2
BF_TOPVIEW
 70
0
 40
120.0
 10
0.0
 20
0.0
 41
200.0
 11
0.0
 21
0.0
 31
1.0
 12
0.0
 22
0.0
 32
0.0
 42
50.0
 43
0.0
 44
0.0
 50
0.0
 71
0
  0
ENDTAB
  0
ENDSEC
  0
SECTION
  2
BLOCKS
  0
ENDSEC
  0
SECTION
  2
ENTITIES
  0
LINE
  8
0
 10
-37.36000061035156
 20
57.15999984741211
 30
0.0
 11
41.63999938964844
 21
57.15999984741211
 31
0.0
  0
LINE
  8
0
 10
41.63999938964844
 20
-67.64000701904297
 30
0.0
 11
41.63999938964844
 21
-5.240005970001221
 31
0.0
  0
LINE
  8
0
 10
41.63999938964844
 20
-67.64000701904297
 30
0.0
 11
-37.36000061035156
 21
-67.64000701904297
 31
0.0
  0
LINE
  8
0
 10
41.63999938964844
 20
-5.240005970001221
 30
0.0
 11
41.63999938964844
 21
57.15999984741211
 31
0.0
  0
LINE
  8
0
 10
36.890480041503906
 20
39.30952835083008
 30
0.0
 11
36.890480041503906
 21
53.10952377319336
 31
0.0
  0
LINE
  8
0
 10
23.09048843383789
 20
53.10952377319336
 30
0.0
 11
36.890480041503906
 21
53.10952377319336
 31
0.0
  0
LINE
  8
0
 10
36.890480041503906
 20
39.30952835083008
 30
0.0
 11
23.09048843383789
 21
39.30952835083008
 31
0.0
  0
LINE
  8
0
 10
36.890480041503906
 20
30.309524536132812
 30
0.0
 11
23.09048843383789
 21
30.309524536132812
 31
0.0
  0
LINE
  8
0
 10
36.890480041503906
 20
30.309524536132812
 30
0.0
 11
36.890480041503906
 21
16.509525299072266
 31
0.0
  0
LINE
  8
0
 10
36.890480041503906
 20
16.509525299072266
 30
0.0
 11
23.09048843383789
 21
16.509525299072266
 31
0.0
  0
LINE
  8
0
 10
23.09048843383789
 20
2.1095242500305176
 30
0.0
 11
29.9904842376709
 21
2.1095242500305176
 31
0.0
  0
LINE
  8
0
 10
29.9904842376709
 20
-11.690479278564453
 30
0.0
 11
36.890480041503906
 21
-11.690479278564453
 31
0.0
  0
LINE
  8
0
 10
29.9904842376709
 20
-11.690479278564453
 30
0.0
 11
23.09048843383789
 21
-11.690479278564453
 31
0.0
  0
LINE
  8
0
 10
36.890480041503906
 20
-49.29047393798828
 30
0.0
 11
36.890480041503906
 21
-35.490474700927734
 31
0.0
  0
LINE
  8
0
 10
23.09048843383789
 20
-35.490474700927734
 30
0.0
 11
36.890480041503906
 21
-35.490474700927734
 31
0.0
  0
LINE
  8
0
 10
36.890480041503906
 20
-49.29047393798828
 30
0.0
 11
23.09048843383789
 21
-49.29047393798828
 31
0.0
  0
LINE
  8
0
 10
36.890480041503906
 20
-11.690479278564453
 30
0.0
 11
36.890480041503906
 21
2.1095242500305176
 31
0.0
  0
LINE
  8
0
 10
29.9904842376709
 20
2.1095242500305176
 30
0.0
 11
36.890480041503906
 21
2.1095242500305176
 31
0.0
  0
LINE
  8
0
 10
4.290496826171875
 20
53.10952377319336
 30
0.0
 11
18.090486526489258
 21
53.10952377319336
 31
0.0
  0
LINE
  8
0
 10
18.090486526489258
 20
39.30952835083008
 30
0.0
 11
18.090486526489258
 21
53.10952377319336
 31
0.0
  0
LINE
  8
0
 10
23.09048843383789
 20
53.10952377319336
 30
0.0
 11
23.09048843383789
 21
39.30952835083008
 31
0.0
  0
LINE
  8
0
 10
23.09048843383789
 20
30.309524536132812
 30
0.0
 11
23.09048843383789
 21
16.509525299072266
 31
0.0
  0
LINE
  8
0
 10
4.290496826171875
 20
30.309524536132812
 30
0.0
 11
18.090486526489258
 21
30.309524536132812
 31
0.0
  0
LINE
  8
0
 10
23.09048843383789
 20
2.1095242500305176
 30
0.0
 11
23.09048843383789
 21
-8.615478515625
 31
0.0
  0
LINE
  8
0
 10
23.09048843383789
 20
-11.690479278564453
 30
0.0
 11
23.09048843383789
 21
-8.615478515625
 31
0.0
  0
LINE
  8
0
 10
23.09048843383789
 20
-35.490474700927734
 30
0.0
 11
23.09048843383789
 21
-46.21547317504883
 31
0.0
  0
LINE
  8
0
 10
23.09048843383789
 20
-49.29047393798828
 30
0.0
 11
23.09048843383789
 21
-46.21547317504883
 31
0.0
  0
LINE
  8
0
 10
18.090486526489258
 20
-39.89046859741211
 30
0.0
 11
4.290496826171875
 21
-39.89046859741211
 31
0.0
  0
LINE
  8
0
 10
18.090486526489258
 20
-58.69047164916992
 30
0.0
 11
18.090486526489258
 21
-44.89046859741211
 31
0.0
  0
LINE
  8
0
 10
18.090486526489258
 20
-58.69047164916992
 30
0.0
 11
4.290496826171875
 21
-58.69047164916992
 31
0.0
  0
LINE
  8
0
 10
18.090486526489258
 20
-44.89046859741211
 30
0.0
 11
4.290496826171875
 21
-44.89046859741211
 31
0.0
  0
LINE
  8
0
 10
18.090486526489258
 20
39.30952835083008
 30
0.0
 11
4.290496826171875
 21
39.30952835083008
 31
0.0
  0
LINE
  8
0
 10
18.090486526489258
 20
16.509525299072266
 30
0.0
 11
18.090486526489258
 21
30.309524536132812
 31
0.0
  0
LINE
  8
0
 10
18.090486526489258
 20
16.509525299072266
 30
0.0
 11
4.290496826171875
 21
16.509525299072266
 31
0.0
  0
LINE
  8
0
 10
4.290496826171875
 20
11.50952434539795
 30
0.0
 11
18.090486526489258
 21
11.50952434539795
 31
0.0
  0
LINE
  8
0
 10
18.090486526489258
 20
11.50952434539795
 30
0.0
 11
18.090486526489258
 21
-2.2904791831970215
 31
0.0
  0
LINE
  8
0
 10
4.290496826171875
 20
-7.29047966003418
 30
0.0
 11
18.090486526489258
 21
-7.29047966003418
 31
0.0
  0
LINE
  8
0
 10
18.090486526489258
 20
-2.2904791831970215
 30
0.0
 11
4.290496826171875
 21
-2.2904791831970215
 31
0.0
  0
LINE
  8
0
 10
4.290496826171875
 20
-21.090473175048828
 30
0.0
 11
18.090486526489258
 21
-21.090473175048828
 31
0.0
  0
LINE
  8
0
 10
18.090486526489258
 20
-7.29047966003418
 30
0.0
 11
18.090486526489258
 21
-21.090473175048828
 31
0.0
  0
LINE
  8
0
 10
18.090486526489258
 20
-39.89046859741211
 30
0.0
 11
18.090486526489258
 21
-31.18380355834961
 31
0.0
  0
LINE
  8
0
 10
18.090486526489258
 20
-26.090473175048828
 30
0.0
 11
4.290496826171875
 21
-26.090473175048828
 31
0.0
  0
LINE
  8
0
 10
18.090486526489258
 20
-31.18380355834961
 30
0.0
 11
18.090486526489258
 21
-26.090473175048828
 31
0.0
  0
LINE
  8
0
 10
4.290496826171875
 20
53.10952377319336
 30
0.0
 11
4.290496826171875
 21
39.30952835083008
 31
0.0
  0
LINE
  8
0
 10
-0.709503173828125
 20
39.30952835083008
 30
0.0
 11
-0.709503173828125
 21
53.10952377319336
 31
0.0
  0
LINE
  8
0
 10
-14.50950813293457
 20
53.10952377319336
 30
0.0
 11
-0.709503173828125
 21
53.10952377319336
 31
0.0
  0
LINE
  8
0
 10
-0.709503173828125
 20
39.30952835083008
 30
0.0
 11
-14.50950813293457
 21
39.30952835083008
 31
0.0
  0
LINE
  8
0
 10
-0.709503173828125
 20
30.309524536132812
 30
0.0
 11
-0.709503173828125
 21
16.509525299072266
 31
0.0
  0
LINE
  8
0
 10
-0.709503173828125
 20
30.309524536132812
 30
0.0
 11
-14.50950813293457
 21
30.309524536132812
 31
0.0
  0
LINE
  8
0
 10
4.290496826171875
 20
30.309524536132812
 30
0.0
 11
4.290496826171875
 21
16.509525299072266
 31
0.0
  0
LINE
  8
0
 10
-0.709503173828125
 20
16.509525299072266
 30
0.0
 11
-14.50950813293457
 21
16.509525299072266
 31
0.0
  0
LINE
  8
0
 10
4.290496826171875
 20
11.50952434539795
 30
0.0
 11
4.290496826171875
 21
-2.2904791831970215
 31
0.0
  0
LINE
  8
0
 10
4.290496826171875
 20
-7.29047966003418
 30
0.0
 11
4.290496826171875
 21
-21.090473175048828
 31
0.0
  0
LINE
  8
0
 10
-0.709503173828125
 20
-21.090473175048828
 30
0.0
 11
-0.709503173828125
 21
-7.29047966003418
 31
0.0
  0
LINE
  8
0
 10
-14.50950813293457
 20
-7.29047966003418
 30
0.0
 11
-0.709503173828125
 21
-7.29047966003418
 31
0.0
  0
LINE
  8
0
 10
4.290496826171875
 20
-26.090473175048828
 30
0.0
 11
4.290496826171875
 21
-39.89046859741211
 31
0.0
  0
LINE
  8
0
 10
-0.709503173828125
 20
-21.090473175048828
 30
0.0
 11
-14.50950813293457
 21
-21.090473175048828
 31
0.0
  0
LINE
  8
0
 10
4.290496826171875
 20
-58.69047164916992
 30
0.0
 11
4.290496826171875
 21
-44.89046859741211
 31
0.0
  0
LINE
  8
0
 10
-14.50950813293457
 20
30.309524536132812
 30
0.0
 11
-14.50950813293457
 21
16.509525299072266
 31
0.0
  0
LINE
  8
0
 10
-0.709503173828125
 20
11.50952434539795
 30
0.0
 11
-0.7095015048980713
 21
0.277677059173584
 31
0.0
  0
LINE
  8
0
 10
-0.7095015048980713
 20
0.277677059173584
 30
0.0
 11
-0.709503173828125
 21
-2.2904791831970215
 31
0.0
  0
LINE
  8
0
 10
-0.709503173828125
 20
11.50952434539795
 30
0.0
 11
-14.50950813293457
 21
11.50952434539795
 31
0.0
  0
LINE
  8
0
 10
-14.50950813293457
 20
11.50952434539795
 30
0.0
 11
-14.50950813293457
 21
-2.2904791831970215
 31
0.0
  0
LINE
  8
0
 10
-0.709503173828125
 20
-2.2904791831970215
 30
0.0
 11
-14.50950813293457
 21
-2.2904791831970215
 31
0.0
  0
LINE
  8
0
 10
-0.709503173828125
 20
-26.090473175048828
 30
0.0
 11
-14.50950813293457
 21
-26.090473175048828
 31
0.0
  0
LINE
  8
0
 10
-0.709503173828125
 20
-26.090473175048828
 30
0.0
 11
-0.709503173828125
 21
-39.89046859741211
 31
0.0
  0
LINE
  8
0
 10
-0.709503173828125
 20
-39.89046859741211
 30
0.0
 11
-14.50950813293457
 21
-39.89046859741211
 31
0.0
  0
LINE
  8
0
 10
-10.109503746032715
 20
-58.69047164916992
 30
0.0
 11
-10.109503746032715
 21
-44.89046859741211
 31
0.0
  0
LINE
  8
0
 10
-10.109503746032715
 20
-58.69047164916992
 30
0.0
 11
-23.909507751464844
 21
-58.69047164916992
 31
0.0
  0
LINE
  8
0
 10
-14.50950813293457
 20
53.10952377319336
 30
0.0
 11
-14.50950813293457
 21
39.30952835083008
 31
0.0
  0
LINE
  8
0
 10
-33.30949401855469
 20
53.10952377319336
 30
0.0
 11
-19.509506225585938
 21
53.10952377319336
 31
0.0
  0
LINE
  8
0
 10
-19.509506225585938
 20
39.30952835083008
 30
0.0
 11
-19.509506225585938
 21
53.10952377319336
 31
0.0
  0
LINE
  8
0
 10
-33.30949401855469
 20
30.309524536132812
 30
0.0
 11
-19.509506225585938
 21
30.309524536132812
 31
0.0
  0
LINE
  8
0
 10
-19.509506225585938
 20
30.309524536132812
 30
0.0
 11
-19.509506225585938
 21
16.509525299072266
 31
0.0
  0
LINE
  8
0
 10
-19.509506225585938
 20
16.509525299072266
 30
0.0
 11
-33.30949401855469
 21
16.509525299072266
 31
0.0
  0
LINE
  8
0
 10
-19.509506225585938
 20
11.50952434539795
 30
0.0
 11
-19.509506225585938
 21
-2.2904791831970215
 31
0.0
  0
LINE
  8
0
 10
-19.509506225585938
 20
11.50952434539795
 30
0.0
 11
-33.30949401855469
 21
11.50952434539795
 31
0.0
  0
LINE
  8
0
 10
-14.50950813293457
 20
-7.29047966003418
 30
0.0
 11
-14.50950813293457
 21
-21.090473175048828
 31
0.0
  0
LINE
  8
0
 10
-19.509506225585938
 20
-2.2904791831970215
 30
0.0
 11
-33.30949401855469
 21
-2.2904791831970215
 31
0.0
  0
LINE
  8
0
 10
-19.509506225585938
 20
-7.29047966003418
 30
0.0
 11
-33.30949401855469
 21
-7.29047966003418
 31
0.0
  0
LINE
  8
0
 10
-19.509506225585938
 20
-7.29047966003418
 30
0.0
 11
-19.509506225585938
 21
-21.090473175048828
 31
0.0
  0
LINE
  8
0
 10
-19.509506225585938
 20
-21.090473175048828
 30
0.0
 11
-33.30949401855469
 21
-21.090473175048828
 31
0.0
  0
LINE
  8
0
 10
-14.50950813293457
 20
-26.090473175048828
 30
0.0
 11
-14.50950813293457
 21
-39.89046859741211
 31
0.0
  0
LINE
  8
0
 10
-19.509506225585938
 20
-26.090473175048828
 30
0.0
 11
-33.30949401855469
 21
-26.090473175048828
 31
0.0
  0
LINE
  8
0
 10
-19.509506225585938
 20
-26.090473175048828
 30
0.0
 11
-19.509506225585938
 21
-39.89046859741211
 31
0.0
  0
LINE
  8
0
 10
-37.36000061035156
 20
57.15999984741211
 30
0.0
 11
-37.36000061035156
 21
-5.240005970001221
 31
0.0
  0
LINE
  8
0
 10
-37.36000061035156
 20
-67.64000701904297
 30
0.0
 11
-37.36000061035156
 21
-5.240005970001221
 31
0.0
  0
LINE
  8
0
 10
-33.30949401855469
 20
53.10952377319336
 30
0.0
 11
-33.30949401855469
 21
39.30952835083008
 31
0.0
  0
LINE
  8
0
 10
-19.509506225585938
 20
39.30952835083008
 30
0.0
 11
-33.30949401855469
 21
39.30952835083008
 31
0.0
  0
LINE
  8
0
 10
-33.30949401855469
 20
30.309524536132812
 30
0.0
 11
-33.30949401855469
 21
16.509525299072266
 31
0.0
  0
LINE
  8
0
 10
-33.30949401855469
 20
11.50952434539795
 30
0.0
 11
-33.30949401855469
 21
-2.2904791831970215
 31
0.0
  0
LINE
  8
0
 10
-33.30949401855469
 20
-7.29047966003418
 30
0.0
 11
-33.30949401855469
 21
-21.090473175048828
 31
0.0
  0
LINE
  8
0
 10
-33.30949401855469
 20
-26.090473175048828
 30
0.0
 11
-33.30949401855469
 21
-39.89046859741211
 31
0.0
  0
LINE
  8
0
 10
-19.509506225585938
 20
-39.89046859741211
 30
0.0
 11
-33.30949401855469
 21
-39.89046859741211
 31
0.0
  0
LINE
  8
0
 10
-10.109503746032715
 20
-44.89046859741211
 30
0.0
 11
-23.909507751464844
 21
-44.89046859741211
 31
0.0
  0
LINE
  8
0
 10
-23.909507751464844
 20
-58.69047164916992
 30
0.0
 11
-23.909507751464844
 21
-44.89046859741211
 31
0.0
  0
ENDSEC
  0
EOF
